<svg xmlns="http://www.w3.org/2000/svg" width="512" height="512" viewBox="0 0 512 512">
  <defs>
    <linearGradient id="bg" x1="0" y1="0" x2="1" y2="1">
      <stop offset="0" stop-color="#1c2233"/><stop offset="1" stop-color="#0b0f18"/>
    </linearGradient>
    <linearGradient id="brass" x1="0" y1="0" x2="0" y2="1">
      <stop offset="0" stop-color="#ffe9a8"/><stop offset="1" stop-color="#e6a53c"/>
    </linearGradient>
  </defs>
  <rect width="512" height="512" rx="112" fill="url(#bg)"/>
  <g stroke-linecap="round"></g>
  <circle cx="158.9" cy="288.7" r="17" fill="#ffd36b"/>
<circle cx="198.8" cy="244.4" r="17" fill="#ffd36b"/>
<circle cx="256.0" cy="228.0" r="17" fill="#ffd36b"/>
<circle cx="313.2" cy="244.4" r="17" fill="#ffd36b"/>
<circle cx="353.1" cy="288.7" r="17" fill="#ffd36b"/>
<circle cx="100.2" cy="273.1" r="15" fill="#3ea6ff"/>
<circle cx="136.5" cy="217.9" r="15" fill="#3ea6ff"/>
<circle cx="191.3" cy="181.0" r="15" fill="#3ea6ff"/>
<circle cx="256.0" cy="168.0" r="15" fill="#3ea6ff"/>
<circle cx="320.7" cy="181.0" r="15" fill="#3ea6ff"/>
<circle cx="375.5" cy="217.9" r="15" fill="#3ea6ff"/>
<circle cx="411.8" cy="273.1" r="15" fill="#3ea6ff"/>
  <path d="M256 336 a73 73 0 0 0 -57 27 h113 a73 73 0 0 0 -57 -27z" fill="url(#brass)"/><g transform="rotate(20 256 336)"><rect x="249.9" y="252" width="12.2" height="84" rx="6.1" fill="#f4f7fa"/></g><path d="M283.0 223.95 l7.3 20.7 20.7 7.3 -20.7 7.3 -7.3 20.7 -7.3 -20.7 -20.7 -7.3 20.7 -7.3z" fill="url(#brass)"/>
</svg>