<svg xmlns="http://www.w3.org/2000/svg" width="512" height="512" viewBox="0 0 512 512">
  <defs>
    <linearGradient id="bg" x1="0" y1="0" x2="1" y2="1">
      <stop offset="0" stop-color="#1c2233"/><stop offset="1" stop-color="#0b0f18"/>
    </linearGradient>
    <linearGradient id="brass" x1="0" y1="0" x2="0" y2="1">
      <stop offset="0" stop-color="#ffe9a8"/><stop offset="1" stop-color="#e6a53c"/>
    </linearGradient>
  </defs>
  <rect width="512" height="512" rx="112" fill="url(#bg)"/>
  <g stroke-linecap="round"><path d="M166.5 327.6 A108 108 0 0 1 345.5 327.6" fill="none" stroke="#ffd36b" stroke-width="4" opacity="0.16"/>
<path d="M121.8 316.6 A152 152 0 0 1 390.2 316.6" fill="none" stroke="#3ec9b0" stroke-width="4" opacity="0.16"/>
<path d="M76.9 308.3 A196 196 0 0 1 435.1 308.3" fill="none" stroke="#3ea6ff" stroke-width="4" opacity="0.16"/>
<path d="M35.3 298.8 A238 238 0 0 1 476.7 298.8" fill="none" stroke="#a68cff" stroke-width="4" opacity="0.16"/></g>
  <circle cx="166.5" cy="327.6" r="11" fill="#ffd36b"/>
<circle cx="196.2" cy="298.0" r="11" fill="#ffd36b"/>
<circle cx="235.0" cy="282.1" r="11" fill="#ffd36b"/>
<circle cx="277.0" cy="282.1" r="11" fill="#ffd36b"/>
<circle cx="315.8" cy="298.0" r="11" fill="#ffd36b"/>
<circle cx="345.5" cy="327.6" r="11" fill="#ffd36b"/>
<circle cx="121.8" cy="316.6" r="10" fill="#3ec9b0"/>
<circle cx="149.9" cy="279.2" r="10" fill="#3ec9b0"/>
<circle cx="188.0" cy="252.1" r="10" fill="#3ec9b0"/>
<circle cx="232.6" cy="237.8" r="10" fill="#3ec9b0"/>
<circle cx="279.4" cy="237.8" r="10" fill="#3ec9b0"/>
<circle cx="324.0" cy="252.1" r="10" fill="#3ec9b0"/>
<circle cx="362.1" cy="279.2" r="10" fill="#3ec9b0"/>
<circle cx="390.2" cy="316.6" r="10" fill="#3ec9b0"/>
<circle cx="76.9" cy="308.3" r="9" fill="#3ea6ff"/>
<circle cx="103.0" cy="265.5" r="9" fill="#3ea6ff"/>
<circle cx="139.0" cy="230.8" r="9" fill="#3ea6ff"/>
<circle cx="182.6" cy="206.3" r="9" fill="#3ea6ff"/>
<circle cx="231.0" cy="193.6" r="9" fill="#3ea6ff"/>
<circle cx="281.0" cy="193.6" r="9" fill="#3ea6ff"/>
<circle cx="329.4" cy="206.3" r="9" fill="#3ea6ff"/>
<circle cx="373.0" cy="230.8" r="9" fill="#3ea6ff"/>
<circle cx="409.0" cy="265.5" r="9" fill="#3ea6ff"/>
<circle cx="435.1" cy="308.3" r="9" fill="#3ea6ff"/>
<circle cx="35.3" cy="298.8" r="8" fill="#a68cff"/>
<circle cx="59.5" cy="253.7" r="8" fill="#a68cff"/>
<circle cx="92.9" cy="214.7" r="8" fill="#a68cff"/>
<circle cx="133.7" cy="183.8" r="8" fill="#a68cff"/>
<circle cx="180.3" cy="162.4" r="8" fill="#a68cff"/>
<circle cx="230.4" cy="151.4" r="8" fill="#a68cff"/>
<circle cx="281.6" cy="151.4" r="8" fill="#a68cff"/>
<circle cx="331.7" cy="162.4" r="8" fill="#a68cff"/>
<circle cx="378.3" cy="183.8" r="8" fill="#a68cff"/>
<circle cx="419.1" cy="214.7" r="8" fill="#a68cff"/>
<circle cx="452.5" cy="253.7" r="8" fill="#a68cff"/>
<circle cx="476.7" cy="298.8" r="8" fill="#a68cff"/>
  <path d="M256 388 a54 54 0 0 0 -42 20 h84 a54 54 0 0 0 -42 -20z" fill="url(#brass)"/><g transform="rotate(20 256 388)"><rect x="251.5" y="326" width="9.0" height="62" rx="4.5" fill="#f4f7fa"/></g><path d="M276.0 305.0 l5.4 15.3 15.3 5.4 -15.3 5.4 -5.4 15.3 -5.4 -15.3 -15.3 -5.4 15.3 -5.4z" fill="url(#brass)"/>
</svg>