<svg xmlns="http://www.w3.org/2000/svg" width="512" height="512" viewBox="0 0 512 512"><defs><linearGradient id="bg" x1="0" y1="0" x2="1" y2="1"><stop offset="0" stop-color="#1c2233"/><stop offset="1" stop-color="#0b0f18"/></linearGradient><linearGradient id="brass" x1="0" y1="0" x2="0" y2="1"><stop offset="0" stop-color="#ffe9a8"/><stop offset="1" stop-color="#e6a53c"/></linearGradient><radialGradient id="soloist" cx="0.5" cy="0.38" r="0.62"><stop offset="0" stop-color="#fff3cf"/><stop offset="1" stop-color="#e6a53c"/></radialGradient></defs><rect width="512" height="512" rx="112" fill="url(#bg)"/><path d="M176 322 L336 214" fill="none" stroke="#3ea6ff" stroke-width="5" opacity="0.16"/><circle cx="176" cy="322" r="28" fill="#3ec9b0"/><circle cx="256" cy="268" r="31" fill="#3ea6ff"/><circle cx="336" cy="214" r="33" fill="#a68cff"/><path d="M256 384 a68 68 0 0 0 -52 25 h105 a68 68 0 0 0 -52 -25z" fill="url(#brass)"/><g transform="rotate(20 256 384)"><rect x="250.4" y="306" width="11.2" height="78" rx="5.6" fill="#f4f7fa"/></g><path d="M281.0 280.25 l6.8 19.1 19.1 6.8 -19.1 6.8 -6.8 19.1 -6.8 -19.1 -19.1 -6.8 19.1 -6.8z" fill="url(#brass)"/></svg>