<svg xmlns="http://www.w3.org/2000/svg" width="512" height="512" viewBox="0 0 512 512"><defs><linearGradient id="bg" x1="0" y1="0" x2="1" y2="1"><stop offset="0" stop-color="#1c2233"/><stop offset="1" stop-color="#0b0f18"/></linearGradient><linearGradient id="brass" x1="0" y1="0" x2="0" y2="1"><stop offset="0" stop-color="#ffe9a8"/><stop offset="1" stop-color="#e6a53c"/></linearGradient><radialGradient id="soloist" cx="0.5" cy="0.38" r="0.62"><stop offset="0" stop-color="#fff3cf"/><stop offset="1" stop-color="#e6a53c"/></radialGradient></defs><rect width="512" height="512" rx="112" fill="url(#bg)"/><path d="M150 250 Q256 200 362 250" fill="none" stroke="#3ea6ff" stroke-width="5" opacity="0.16"/><circle cx="150" cy="250" r="30" fill="#ffd36b"/><circle cx="256" cy="222" r="33" fill="#3ea6ff"/><circle cx="362" cy="250" r="30" fill="#a68cff"/><path d="M256 362 a70 70 0 0 0 -55 26 h109 a70 70 0 0 0 -55 -26z" fill="url(#brass)"/><g transform="rotate(20 256 362)"><rect x="250.2" y="281" width="11.7" height="81" rx="5.9" fill="#f4f7fa"/></g><path d="M282.0 254.1 l7.1 19.9 19.9 7.1 -19.9 7.1 -7.1 19.9 -7.1 -19.9 -19.9 -7.1 19.9 -7.1z" fill="url(#brass)"/></svg>