<svg xmlns="http://www.w3.org/2000/svg" width="512" height="512" viewBox="0 0 512 512"><defs><linearGradient id="bg" x1="0" y1="0" x2="1" y2="1"><stop offset="0" stop-color="#1c2233"/><stop offset="1" stop-color="#0b0f18"/></linearGradient><linearGradient id="brass" x1="0" y1="0" x2="0" y2="1"><stop offset="0" stop-color="#ffe9a8"/><stop offset="1" stop-color="#e6a53c"/></linearGradient><radialGradient id="soloist" cx="0.5" cy="0.38" r="0.62"><stop offset="0" stop-color="#fff3cf"/><stop offset="1" stop-color="#e6a53c"/></radialGradient></defs><rect width="512" height="512" rx="112" fill="url(#bg)"/><path d="M102.9 246.0 A52 52 0 0 1 197.1 246.0" fill="none" stroke="#ffd36b" stroke-width="3" opacity="0.16"/><circle cx="102.9" cy="246.0" r="10" fill="#ffd36b"/>
<circle cx="150.0" cy="216.0" r="10" fill="#ffd36b"/>
<circle cx="197.1" cy="246.0" r="10" fill="#ffd36b"/><path d="M208.9 214.0 A52 52 0 0 1 303.1 214.0" fill="none" stroke="#3ea6ff" stroke-width="3" opacity="0.16"/><circle cx="208.9" cy="214.0" r="10" fill="#3ea6ff"/>
<circle cx="256.0" cy="184.0" r="10" fill="#3ea6ff"/>
<circle cx="303.1" cy="214.0" r="10" fill="#3ea6ff"/><path d="M314.9 246.0 A52 52 0 0 1 409.1 246.0" fill="none" stroke="#a68cff" stroke-width="3" opacity="0.16"/><circle cx="314.9" cy="246.0" r="10" fill="#a68cff"/>
<circle cx="362.0" cy="216.0" r="10" fill="#a68cff"/>
<circle cx="409.1" cy="246.0" r="10" fill="#a68cff"/><path d="M256 410 a43 43 0 0 0 -34 16 h67 a43 43 0 0 0 -34 -16z" fill="url(#brass)"/><g transform="rotate(20 256 410)"><rect x="252.4" y="360" width="7.2" height="50" rx="3.6" fill="#f4f7fa"/></g><path d="M272.0 343.59999999999997 l4.4 12.2 12.2 4.4 -12.2 4.4 -4.4 12.2 -4.4 -12.2 -12.2 -4.4 12.2 -4.4z" fill="url(#brass)"/></svg>