<svg xmlns="http://www.w3.org/2000/svg" width="512" height="512" viewBox="0 0 512 512"><defs><linearGradient id="bg" x1="0" y1="0" x2="1" y2="1"><stop offset="0" stop-color="#1c2233"/><stop offset="1" stop-color="#0b0f18"/></linearGradient><linearGradient id="brass" x1="0" y1="0" x2="0" y2="1"><stop offset="0" stop-color="#ffe9a8"/><stop offset="1" stop-color="#e6a53c"/></linearGradient><radialGradient id="soloist" cx="0.5" cy="0.38" r="0.62"><stop offset="0" stop-color="#fff3cf"/><stop offset="1" stop-color="#e6a53c"/></radialGradient></defs><rect width="512" height="512" rx="112" fill="url(#bg)"/><path d="M128.0 314.0 A60 60 0 0 1 232.0 314.0" fill="none" stroke="#3ec9b0" stroke-width="3" opacity="0.16"/><circle cx="128.0" cy="314.0" r="9" fill="#3ec9b0"/>
<circle cx="159.5" cy="287.6" r="9" fill="#3ec9b0"/>
<circle cx="200.5" cy="287.6" r="9" fill="#3ec9b0"/>
<circle cx="232.0" cy="314.0" r="9" fill="#3ec9b0"/><path d="M188.0 258.0 A60 60 0 0 1 292.0 258.0" fill="none" stroke="#3ea6ff" stroke-width="3" opacity="0.16"/><circle cx="188.0" cy="258.0" r="9" fill="#3ea6ff"/>
<circle cx="219.5" cy="231.6" r="9" fill="#3ea6ff"/>
<circle cx="260.5" cy="231.6" r="9" fill="#3ea6ff"/>
<circle cx="292.0" cy="258.0" r="9" fill="#3ea6ff"/><path d="M248.0 202.0 A60 60 0 0 1 352.0 202.0" fill="none" stroke="#a68cff" stroke-width="3" opacity="0.16"/><circle cx="248.0" cy="202.0" r="9" fill="#a68cff"/>
<circle cx="279.5" cy="175.6" r="9" fill="#a68cff"/>
<circle cx="320.5" cy="175.6" r="9" fill="#a68cff"/>
<circle cx="352.0" cy="202.0" r="9" fill="#a68cff"/><path d="M256 418 a40 40 0 0 0 -32 15 h63 a40 40 0 0 0 -32 -15z" fill="url(#brass)"/><g transform="rotate(20 256 418)"><rect x="252.6" y="372" width="6.8" height="46" rx="3.4" fill="#f4f7fa"/></g><path d="M271.0 355.75 l4.1 11.5 11.5 4.1 -11.5 4.1 -4.1 11.5 -4.1 -11.5 -11.5 -4.1 11.5 -4.1z" fill="url(#brass)"/></svg>