<svg xmlns="http://www.w3.org/2000/svg" width="512" height="512" viewBox="0 0 512 512"><defs><linearGradient id="bg" x1="0" y1="0" x2="1" y2="1"><stop offset="0" stop-color="#1c2233"/><stop offset="1" stop-color="#0b0f18"/></linearGradient><linearGradient id="brass" x1="0" y1="0" x2="0" y2="1"><stop offset="0" stop-color="#ffe9a8"/><stop offset="1" stop-color="#e6a53c"/></linearGradient><radialGradient id="soloist" cx="0.5" cy="0.38" r="0.62"><stop offset="0" stop-color="#fff3cf"/><stop offset="1" stop-color="#e6a53c"/></radialGradient></defs><rect width="512" height="512" rx="112" fill="url(#bg)"/><circle cx="192.6" cy="244.4" r="7.0" fill="#ffd36b"/><circle cx="150.9" cy="225.0" r="8.6" fill="#ffd36b"/><circle cx="109.2" cy="205.5" r="10.2" fill="#ffd36b"/><circle cx="208.3" cy="222.8" r="7.0" fill="#3ec9b0"/><circle cx="176.9" cy="189.2" r="8.6" fill="#3ec9b0"/><circle cx="145.5" cy="155.5" r="10.2" fill="#3ec9b0"/><circle cx="230.9" cy="208.6" r="7.0" fill="#3ea6ff"/><circle cx="214.4" cy="165.7" r="8.6" fill="#3ea6ff"/><circle cx="197.9" cy="122.8" r="10.2" fill="#3ea6ff"/><circle cx="257.2" cy="204.0" r="7.0" fill="#a68cff"/><circle cx="258.0" cy="158.0" r="8.6" fill="#a68cff"/><circle cx="258.8" cy="112.0" r="10.2" fill="#a68cff"/><circle cx="283.4" cy="209.6" r="7.0" fill="#ffd36b"/><circle cx="301.3" cy="167.2" r="8.6" fill="#ffd36b"/><circle cx="319.3" cy="124.9" r="10.2" fill="#ffd36b"/><circle cx="305.5" cy="224.5" r="7.0" fill="#3ec9b0"/><circle cx="338.0" cy="192.0" r="8.6" fill="#3ec9b0"/><circle cx="370.6" cy="159.4" r="10.2" fill="#3ec9b0"/><path d="M256 424 a43 43 0 0 0 -34 16 h67 a43 43 0 0 0 -34 -16z" fill="url(#brass)"/><g transform="rotate(20 256 424)"><rect x="252.4" y="374" width="7.2" height="50" rx="3.6" fill="#f4f7fa"/></g><path d="M272.0 357.59999999999997 l4.4 12.2 12.2 4.4 -12.2 4.4 -4.4 12.2 -4.4 -12.2 -12.2 -4.4 12.2 -4.4z" fill="url(#brass)"/><circle cx="256" cy="274" r="46" fill="url(#soloist)" opacity="0.18"/><path d="M256 244.0 l9.6 27.0 27.0 9.6 -27.0 9.6 -9.6 27.0 -9.6 -27.0 -27.0 -9.6 27.0 -9.6z" fill="url(#soloist)" opacity="1.00"/></svg>