<svg xmlns="http://www.w3.org/2000/svg" width="512" height="512" viewBox="0 0 512 512"><defs><linearGradient id="bg" x1="0" y1="0" x2="1" y2="1"><stop offset="0" stop-color="#1c2233"/><stop offset="1" stop-color="#0b0f18"/></linearGradient><linearGradient id="brass" x1="0" y1="0" x2="0" y2="1"><stop offset="0" stop-color="#ffe9a8"/><stop offset="1" stop-color="#e6a53c"/></linearGradient><radialGradient id="soloist" cx="0.5" cy="0.38" r="0.62"><stop offset="0" stop-color="#fff3cf"/><stop offset="1" stop-color="#e6a53c"/></radialGradient></defs><rect width="512" height="512" rx="112" fill="url(#bg)"/><path d="M63.7 302.2 A214 214 0 0 1 448.3 302.2" fill="none" stroke="#3ea6ff" stroke-width="3" opacity="0.16"/><circle cx="63.7" cy="302.2" r="9" fill="#3ea6ff"/>
<circle cx="97.0" cy="252.8" r="9" fill="#3ea6ff"/>
<circle cx="142.6" cy="214.5" r="9" fill="#3ea6ff"/>
<circle cx="197.0" cy="190.3" r="9" fill="#3ea6ff"/>
<circle cx="256.0" cy="182.0" r="9" fill="#3ea6ff"/>
<circle cx="315.0" cy="190.3" r="9" fill="#3ea6ff"/>
<circle cx="369.4" cy="214.5" r="9" fill="#3ea6ff"/>
<circle cx="415.0" cy="252.8" r="9" fill="#3ea6ff"/>
<circle cx="448.3" cy="302.2" r="9" fill="#3ea6ff"/><path d="M18.6 300.1 A256 256 0 0 1 493.4 300.1" fill="none" stroke="#a68cff" stroke-width="3" opacity="0.16"/><circle cx="18.6" cy="300.1" r="8" fill="#a68cff"/>
<circle cx="47.8" cy="247.0" r="8" fill="#a68cff"/>
<circle cx="88.7" cy="202.2" r="8" fill="#a68cff"/>
<circle cx="139.0" cy="168.3" r="8" fill="#a68cff"/>
<circle cx="195.8" cy="147.2" r="8" fill="#a68cff"/>
<circle cx="256.0" cy="140.0" r="8" fill="#a68cff"/>
<circle cx="316.2" cy="147.2" r="8" fill="#a68cff"/>
<circle cx="373.0" cy="168.3" r="8" fill="#a68cff"/>
<circle cx="423.3" cy="202.2" r="8" fill="#a68cff"/>
<circle cx="464.2" cy="247.0" r="8" fill="#a68cff"/>
<circle cx="493.4" cy="300.1" r="8" fill="#a68cff"/><circle cx="256.0" cy="288.0" r="69.0" fill="#ffd36b" opacity="0.16"/><circle cx="256.0" cy="288.0" r="30.0" fill="url(#soloist)"/><path d="M256 396 a44 44 0 0 0 -34 16 h69 a44 44 0 0 0 -34 -16z" fill="url(#brass)"/><g transform="rotate(20 256 396)"><rect x="252.3" y="345" width="7.4" height="51" rx="3.7" fill="#f4f7fa"/></g><path d="M272.4 327.94 l4.5 12.5 12.5 4.5 -12.5 4.5 -4.5 12.5 -4.5 -12.5 -12.5 -4.5 12.5 -4.5z" fill="url(#brass)"/></svg>