<svg xmlns="http://www.w3.org/2000/svg" width="1520" height="1320" viewBox="0 0 1520 1320">
<rect width="1520" height="1320" fill="#eef0f3"/>
<text x="60" y="50" font-family="Helvetica,Arial" font-size="25" font-weight="800" fill="#1b2230">AGENTS / ROLES</text>
<rect x="60.0" y="80.0" width="120" height="120" rx="26.4" fill="#141a26"/><g transform="rotate(-38 120.0 137.6)"><rect x="95.03999999999999" y="134.48" width="45.24" height="6.240000000000001" rx="3.1200000000000006" fill="#ffd36b"/></g><circle cx="100.656" cy="153.2" r="5.928000000000001" fill="#ffd36b"/><path d="M139.344 109.832 l3.18 7.43 7.43 3.18 -7.43 3.18 -3.18 7.43 -3.18 -7.43 -7.43 -3.18 7.43 -3.18z" fill="#ffd36b"/><text x="120.0" y="224.0" text-anchor="middle" font-family="Helvetica,Arial" font-size="18" font-weight="700" fill="#1b2230">Coordinator</text><text x="120.0" y="245.0" text-anchor="middle" font-family="Helvetica,Arial" font-size="14" fill="#6b7480">conductor</text>
<rect x="200.0" y="80.0" width="120" height="120" rx="26.4" fill="#141a26"/><path d="M260.0 106.39999999999999 C288.08 115.75999999999999 275.6 143.84 260.0 143.84 C238.16 143.84 241.28 122.0 263.12 120.44 C277.16 120.44 275.6 134.48 261.56 134.48" fill="none" stroke="#a68cff" stroke-width="4.992000000000001" stroke-linecap="round"/><rect x="259.064" y="106.39999999999999" width="3.744" height="59.28" rx="1.872" fill="#a68cff"/><circle cx="260.0" cy="167.24" r="4.992000000000001" fill="#a68cff"/><text x="260.0" y="224.0" text-anchor="middle" font-family="Helvetica,Arial" font-size="18" font-weight="700" fill="#1b2230">Specifier</text><text x="260.0" y="245.0" text-anchor="middle" font-family="Helvetica,Arial" font-size="14" fill="#6b7480">sets the key</text>
<rect x="340.0" y="80.0" width="120" height="120" rx="26.4" fill="#141a26"/><path d="M378.16 114.19999999999999 L406.24 114.19999999999999 C428.08 115.75999999999999 429.64 148.51999999999998 401.56 161.936 L378.16 161.936 Z" fill="#a68cff"/><rect x="382.528" y="118.256" width="6.240000000000001" height="39.624" fill="#141a26"/><line x1="382.528" y1="124.9" x2="388.768" y2="124.9" stroke="#a68cff" stroke-width="1.5600000000000003"/><line x1="382.528" y1="131.5" x2="388.768" y2="131.5" stroke="#a68cff" stroke-width="1.5600000000000003"/><line x1="382.528" y1="138.1" x2="388.768" y2="138.1" stroke="#a68cff" stroke-width="1.5600000000000003"/><line x1="382.528" y1="144.7" x2="388.768" y2="144.7" stroke="#a68cff" stroke-width="1.5600000000000003"/><line x1="382.528" y1="151.3" x2="388.768" y2="151.3" stroke="#a68cff" stroke-width="1.5600000000000003"/><text x="400.0" y="224.0" text-anchor="middle" font-family="Helvetica,Arial" font-size="18" font-weight="700" fill="#1b2230">Architect</text><text x="400.0" y="245.0" text-anchor="middle" font-family="Helvetica,Arial" font-size="14" fill="#6b7480">grand piano</text>
<rect x="480.0" y="80.0" width="120" height="120" rx="26.4" fill="#141a26"/><ellipse cx="540.0" cy="150.704" rx="17.160000000000004" ry="18.720000000000002" fill="#3ea6ff"/><ellipse cx="540.0" cy="127.61599999999999" rx="13.104000000000001" ry="14.352000000000002" fill="#3ea6ff"/><rect x="537.504" y="97.03999999999999" width="4.992000000000001" height="21.84" rx="1.5600000000000003" fill="#3ea6ff"/><circle cx="540.0" cy="95.47999999999999" r="4.368000000000001" fill="#3ea6ff"/><line x1="540.0" y1="100.16" x2="540.0" y2="164.12" stroke="#141a26" stroke-width="2.8080000000000003"/><text x="540.0" y="224.0" text-anchor="middle" font-family="Helvetica,Arial" font-size="18" font-weight="700" fill="#1b2230">Coder</text><text x="540.0" y="245.0" text-anchor="middle" font-family="Helvetica,Arial" font-size="14" fill="#6b7480">cello</text>
<rect x="620.0" y="80.0" width="120" height="120" rx="26.4" fill="#141a26"/><path d="M667.52 106.39999999999999 v34.32000000000001 a12.480000000000002 12.480000000000002 0 0 0 24.960000000000004 0 v-34.32000000000001" fill="none" stroke="#3ec9b0" stroke-width="4.992000000000001" stroke-linecap="round"/><rect x="678.128" y="143.84" width="3.744" height="28.080000000000002" rx="1.872" fill="#3ec9b0"/><text x="680.0" y="224.0" text-anchor="middle" font-family="Helvetica,Arial" font-size="18" font-weight="700" fill="#1b2230">QA</text><text x="680.0" y="245.0" text-anchor="middle" font-family="Helvetica,Arial" font-size="14" fill="#6b7480">in tune?</text>
<rect x="760.0" y="80.0" width="120" height="120" rx="26.4" fill="#141a26"/><path d="M795.04 126.67999999999999 C795.04 162.56 844.96 162.56 844.96 126.67999999999999" fill="#3ec9b0" opacity="0.28"/><path d="M795.04 126.67999999999999 C795.04 162.56 844.96 162.56 844.96 126.67999999999999" fill="none" stroke="#3ec9b0" stroke-width="3.4320000000000004"/><ellipse cx="820.0" cy="126.67999999999999" rx="24.960000000000004" ry="7.800000000000001" fill="none" stroke="#3ec9b0" stroke-width="3.744"/><line x1="796.8808" y1="128.23999999999998" x2="800.4376" y2="119.50399999999999" stroke="#3ec9b0" stroke-width="2.1840000000000006"/><line x1="807.832" y1="128.23999999999998" x2="809.704" y2="119.50399999999999" stroke="#3ec9b0" stroke-width="2.1840000000000006"/><line x1="832.168" y1="128.23999999999998" x2="830.296" y2="119.50399999999999" stroke="#3ec9b0" stroke-width="2.1840000000000006"/><line x1="843.1192" y1="128.23999999999998" x2="839.5624" y2="119.50399999999999" stroke="#3ec9b0" stroke-width="2.1840000000000006"/><line x1="805.96" y1="156.32" x2="801.904" y2="167.24" stroke="#3ec9b0" stroke-width="2.8080000000000003" stroke-linecap="round"/><line x1="834.04" y1="156.32" x2="838.096" y2="167.24" stroke="#3ec9b0" stroke-width="2.8080000000000003" stroke-linecap="round"/><text x="820.0" y="224.0" text-anchor="middle" font-family="Helvetica,Arial" font-size="18" font-weight="700" fill="#1b2230">Hardener</text><text x="820.0" y="245.0" text-anchor="middle" font-family="Helvetica,Arial" font-size="14" fill="#6b7480">timpani</text>
<rect x="900.0" y="80.0" width="120" height="120" rx="26.4" fill="#141a26"/><rect x="951.264" y="109.52" width="3.4320000000000004" height="43.68" fill="#9aa4b2"/><rect x="965.304" y="122.0" width="3.4320000000000004" height="43.68" fill="#9aa4b2"/><path d="M951.264 126.67999999999999 L968.736 122.0 L968.736 131.35999999999999 L951.264 136.04z" fill="#9aa4b2"/><path d="M951.264 143.84 L968.736 139.16 L968.736 148.51999999999998 L951.264 153.2z" fill="#9aa4b2"/><text x="960.0" y="224.0" text-anchor="middle" font-family="Helvetica,Arial" font-size="18" font-weight="700" fill="#1b2230">Cleaner</text><text x="960.0" y="245.0" text-anchor="middle" font-family="Helvetica,Arial" font-size="14" fill="#6b7480">natural sign</text>
<rect x="1040.0" y="80.0" width="120" height="120" rx="26.4" fill="#141a26"/><path d="M1100.0 122.0 C1087.52 114.19999999999999 1071.92 118.88 1071.92 120.44 v37.440000000000005 C1071.92 154.76 1087.52 151.64 1100.0 159.44 C1112.48 151.64 1128.08 154.76 1128.08 157.88 v-37.440000000000005 C1128.08 118.88 1112.48 114.19999999999999 1100.0 122.0z" fill="none" stroke="#ffd36b" stroke-width="3.4320000000000004" stroke-linejoin="round"/><line x1="1100.0" y1="122.0" x2="1100.0" y2="159.44" stroke="#ffd36b" stroke-width="2.8080000000000003"/><text x="1100.0" y="224.0" text-anchor="middle" font-family="Helvetica,Arial" font-size="18" font-weight="700" fill="#1b2230">Documenter</text><text x="1100.0" y="245.0" text-anchor="middle" font-family="Helvetica,Arial" font-size="14" fill="#6b7480">programme</text>
<rect x="1180.0" y="80.0" width="120" height="120" rx="26.4" fill="#141a26"/><rect x="1224.4" y="109.52" width="31.200000000000003" height="17.160000000000004" rx="3.744" fill="none" stroke="#3ea6ff" stroke-width="3.744"/><rect x="1224.4" y="131.35999999999999" width="31.200000000000003" height="8.736000000000002" rx="3.1200000000000006" fill="#3ea6ff"/><line x1="1226.896" y1="140.096" x2="1226.896" y2="165.68" stroke="#3ea6ff" stroke-width="3.4320000000000004" stroke-linecap="round"/><line x1="1253.104" y1="140.096" x2="1253.104" y2="165.68" stroke="#3ea6ff" stroke-width="3.4320000000000004" stroke-linecap="round"/><text x="1240.0" y="224.0" text-anchor="middle" font-family="Helvetica,Arial" font-size="18" font-weight="700" fill="#1b2230">Recruiter</text><text x="1240.0" y="245.0" text-anchor="middle" font-family="Helvetica,Arial" font-size="14" fill="#6b7480">fill a seat</text>
<rect x="1320.0" y="80.0" width="120" height="120" rx="26.4" fill="#141a26"/><path d="M1356.6 153.2 a23.400000000000002 23.400000000000002 0 0 1 46.800000000000004 0z" fill="#ff9a6b"/><rect x="1353.48" y="153.2" width="53.040000000000006" height="5.6160000000000005" rx="2.8080000000000003" fill="#ff9a6b"/><circle cx="1380.0" cy="126.67999999999999" r="4.992000000000001" fill="#ff9a6b"/><text x="1380.0" y="224.0" text-anchor="middle" font-family="Helvetica,Arial" font-size="18" font-weight="700" fill="#1b2230">Support</text><text x="1380.0" y="245.0" text-anchor="middle" font-family="Helvetica,Arial" font-size="14" fill="#6b7480">call bell</text>
<text x="60" y="380" font-family="Helvetica,Arial" font-size="25" font-weight="800" fill="#1b2230">BL ITEMS</text>
<rect x="60.0" y="410.0" width="120" height="120" rx="26.4" fill="#141a26"/><path d="M96.6 436.40000000000003 q-8.736000000000002 1.5600000000000003 -8.736000000000002 14.040000000000001 q0 9.360000000000001 -6.864000000000001 15.600000000000001 q6.864000000000001 6.240000000000001 6.864000000000001 15.600000000000001 q0 12.480000000000002 8.736000000000002 14.040000000000001" fill="none" stroke="#ffd36b" stroke-width="3.744" stroke-linecap="round"/><line x1="112.2" y1="444.512" x2="146.52" y2="444.512" stroke="#ffd36b" stroke-width="1.5600000000000003"/><line x1="112.2" y1="448.25600000000003" x2="146.52" y2="448.25600000000003" stroke="#ffd36b" stroke-width="1.5600000000000003"/><line x1="112.2" y1="452.0" x2="146.52" y2="452.0" stroke="#ffd36b" stroke-width="1.5600000000000003"/><line x1="112.2" y1="463.856" x2="146.52" y2="463.856" stroke="#ffd36b" stroke-width="1.5600000000000003"/><line x1="112.2" y1="467.6" x2="146.52" y2="467.6" stroke="#ffd36b" stroke-width="1.5600000000000003"/><line x1="112.2" y1="471.344" x2="146.52" y2="471.344" stroke="#ffd36b" stroke-width="1.5600000000000003"/><line x1="112.2" y1="483.2" x2="146.52" y2="483.2" stroke="#ffd36b" stroke-width="1.5600000000000003"/><line x1="112.2" y1="486.944" x2="146.52" y2="486.944" stroke="#ffd36b" stroke-width="1.5600000000000003"/><line x1="112.2" y1="490.688" x2="146.52" y2="490.688" stroke="#ffd36b" stroke-width="1.5600000000000003"/><text x="120.0" y="554.0" text-anchor="middle" font-family="Helvetica,Arial" font-size="18" font-weight="700" fill="#1b2230">Epic</text><text x="120.0" y="575.0" text-anchor="middle" font-family="Helvetica,Arial" font-size="14" fill="#6b7480">symphony (brace)</text>
<rect x="200.0" y="410.0" width="120" height="120" rx="26.4" fill="#141a26"/><rect x="233.48" y="447.32000000000005" width="53.040000000000006" height="40.56" rx="4.992000000000001" fill="none" stroke="#3ea6ff" stroke-width="4.056000000000001"/><ellipse cx="253.136" cy="474.464" rx="6.864000000000001" ry="5.304000000000001" fill="#3ea6ff" transform="rotate(-20 253.136 474.464)"/><rect x="258.752" y="457.61600000000004" width="2.8080000000000003" height="17.472000000000005" fill="#3ea6ff"/><line x1="266.864" y1="458.86400000000003" x2="276.224" y2="458.86400000000003" stroke="#3ea6ff" stroke-width="3.1200000000000006" stroke-linecap="round"/><text x="260.0" y="554.0" text-anchor="middle" font-family="Helvetica,Arial" font-size="18" font-weight="700" fill="#1b2230">Ticket</text><text x="260.0" y="575.0" text-anchor="middle" font-family="Helvetica,Arial" font-size="14" fill="#6b7480">a movement (card)</text>
<rect x="340.0" y="410.0" width="120" height="120" rx="26.4" fill="#141a26"/><path d="M395.32 436.40000000000003 l14.040000000000001 15.600000000000001 -14.040000000000001 14.040000000000001 15.600000000000001 15.600000000000001 q-18.720000000000002 -6.240000000000001 -4.680000000000001 17.160000000000004 q-15.600000000000001 -10.92 0 -23.400000000000002z" fill="#9aa4b2" stroke="#9aa4b2" stroke-width="1.5600000000000003" stroke-linejoin="round"/><text x="400.0" y="554.0" text-anchor="middle" font-family="Helvetica,Arial" font-size="18" font-weight="700" fill="#1b2230">Todo</text><text x="400.0" y="575.0" text-anchor="middle" font-family="Helvetica,Arial" font-size="14" fill="#6b7480">unplayed</text>
<rect x="480.0" y="410.0" width="120" height="120" rx="26.4" fill="#141a26"/><ellipse cx="527.988" cy="476.024" rx="6.9888" ry="5.2416" fill="#3ec9b0" transform="rotate(-22 527.988 476.024)"/><ellipse cx="552.012" cy="476.024" rx="6.9888" ry="5.2416" fill="#3ec9b0" transform="rotate(-22 552.012 476.024)"/><rect x="533.448" y="445.44800000000004" width="2.184" height="30.575999999999997" fill="#3ec9b0"/><rect x="557.472" y="445.44800000000004" width="2.184" height="30.575999999999997" fill="#3ec9b0"/><rect x="533.448" y="444.356" width="26.208" height="4.8048" fill="#3ec9b0"/><path d="M568.08 486.32000000000005 L518.16 497.24 L568.08 508.16" fill="none" stroke="#3ec9b0" stroke-width="2.4960000000000004" stroke-linecap="round"/><text x="540.0" y="554.0" text-anchor="middle" font-family="Helvetica,Arial" font-size="18" font-weight="700" fill="#1b2230">In progress</text><text x="540.0" y="575.0" text-anchor="middle" font-family="Helvetica,Arial" font-size="14" fill="#6b7480">playing</text>
<rect x="620.0" y="410.0" width="120" height="120" rx="26.4" fill="#141a26"/><line x1="669.08" y1="489.44" x2="678.44" y2="445.76000000000005" stroke="#ff9a6b" stroke-width="3.744" stroke-linecap="round"/><line x1="684.68" y1="489.44" x2="694.04" y2="445.76000000000005" stroke="#ff9a6b" stroke-width="3.744" stroke-linecap="round"/><text x="680.0" y="554.0" text-anchor="middle" font-family="Helvetica,Arial" font-size="18" font-weight="700" fill="#1b2230">Blocked</text><text x="680.0" y="575.0" text-anchor="middle" font-family="Helvetica,Arial" font-size="14" fill="#6b7480">caesura</text>
<rect x="760.0" y="410.0" width="120" height="120" rx="26.4" fill="#141a26"/><rect x="810.64" y="453.56" width="3.1200000000000006" height="42.120000000000005" fill="#6fd08a"/><rect x="818.44" y="453.56" width="9.360000000000001" height="42.120000000000005" fill="#6fd08a"/><path d="M800.656 448.25600000000003 A19.344 19.344 0 0 1 839.344 448.25600000000003" fill="none" stroke="#6fd08a" stroke-width="4.056000000000001" stroke-linecap="round"/><circle cx="820.0" cy="445.136" r="4.056000000000001" fill="#6fd08a"/><text x="820.0" y="554.0" text-anchor="middle" font-family="Helvetica,Arial" font-size="18" font-weight="700" fill="#1b2230">Done</text><text x="820.0" y="575.0" text-anchor="middle" font-family="Helvetica,Arial" font-size="14" fill="#6b7480">fermata + barline</text>
<rect x="900.0" y="410.0" width="120" height="120" rx="26.4" fill="#141a26"/><rect x="942.84" y="439.52000000000004" width="8.736000000000002" height="56.160000000000004" fill="#f0b84c"/><rect x="955.008" y="439.52000000000004" width="3.1200000000000006" height="56.160000000000004" fill="#f0b84c"/><circle cx="971.856" cy="455.744" r="6.864000000000001" fill="#f0b84c"/><circle cx="971.856" cy="479.456" r="6.864000000000001" fill="#f0b84c"/><text x="960.0" y="554.0" text-anchor="middle" font-family="Helvetica,Arial" font-size="18" font-weight="700" fill="#1b2230">Bounced</text><text x="960.0" y="575.0" text-anchor="middle" font-family="Helvetica,Arial" font-size="14" fill="#6b7480">da capo</text>
<rect x="1040.0" y="410.0" width="120" height="120" rx="26.4" fill="#141a26"/><path d="M1088.924 448.88000000000005 l9.828 10.92 -9.828 9.828 10.92 10.92 q-13.104 -4.368 -3.276 12.012 q-10.92 -7.643999999999999 0 -16.38z" fill="#a68cff" stroke="#a68cff" stroke-width="1.092" stroke-linejoin="round"/><text x="1115.6" y="461.36" font-family="Georgia,serif" font-size="46.800000000000004" fill="#a68cff" text-anchor="middle">?</text><text x="1100.0" y="554.0" text-anchor="middle" font-family="Helvetica,Arial" font-size="18" font-weight="700" fill="#1b2230">Needs design</text><text x="1100.0" y="575.0" text-anchor="middle" font-family="Helvetica,Arial" font-size="14" fill="#6b7480">unresolved</text>
<text x="60" y="710" font-family="Helvetica,Arial" font-size="25" font-weight="800" fill="#1b2230">STRUCTURE &amp; SIGNALS</text>
<rect x="60.0" y="740.0" width="120" height="120" rx="26.4" fill="#141a26"/><circle cx="101.1" cy="808.5" r="3.744" fill="#3ea6ff"/><circle cx="109.1" cy="800.5" r="3.744" fill="#3ea6ff"/><circle cx="120.0" cy="797.6" r="3.744" fill="#3ea6ff"/><circle cx="130.9" cy="800.5" r="3.744" fill="#3ea6ff"/><circle cx="138.9" cy="808.5" r="3.744" fill="#3ea6ff"/><circle cx="90.3" cy="805.6" r="3.744" fill="#a68cff"/><circle cx="97.5" cy="795.6" r="3.744" fill="#a68cff"/><circle cx="107.9" cy="789.0" r="3.744" fill="#a68cff"/><circle cx="120.0" cy="786.7" r="3.744" fill="#a68cff"/><circle cx="132.1" cy="789.0" r="3.744" fill="#a68cff"/><circle cx="142.5" cy="795.6" r="3.744" fill="#a68cff"/><circle cx="149.7" cy="805.6" r="3.744" fill="#a68cff"/><circle cx="120.0" cy="817.8800000000001" r="4.992000000000001" fill="#ffd36b"/><text x="120.0" y="884.0" text-anchor="middle" font-family="Helvetica,Arial" font-size="18" font-weight="700" fill="#1b2230">Swarm</text><text x="120.0" y="905.0" text-anchor="middle" font-family="Helvetica,Arial" font-size="14" fill="#6b7480">the ensemble</text>
<rect x="200.0" y="740.0" width="120" height="120" rx="26.4" fill="#141a26"/><path d="M228.8 824.12 L228.8 791.36 A31.200000000000003 31.200000000000003 0 0 1 291.2 791.36 L291.2 824.12" fill="none" stroke="#a68cff" stroke-width="3.1200000000000006"/><circle cx="244.4" cy="799.16" r="2.8080000000000003" fill="#ffd36b"/><circle cx="260.0" cy="799.16" r="2.8080000000000003" fill="#3ec9b0"/><circle cx="275.6" cy="799.16" r="2.8080000000000003" fill="#3ea6ff"/><circle cx="236.6" cy="810.08" r="2.8080000000000003" fill="#3ec9b0"/><circle cx="252.2" cy="810.08" r="2.8080000000000003" fill="#3ea6ff"/><circle cx="267.8" cy="810.08" r="2.8080000000000003" fill="#a68cff"/><circle cx="283.4" cy="810.08" r="2.8080000000000003" fill="#ffd36b"/><circle cx="228.8" cy="820.0640000000001" r="2.8080000000000003" fill="#3ea6ff"/><circle cx="244.4" cy="820.0640000000001" r="2.8080000000000003" fill="#a68cff"/><circle cx="260.0" cy="820.0640000000001" r="2.8080000000000003" fill="#ffd36b"/><circle cx="275.6" cy="820.0640000000001" r="2.8080000000000003" fill="#3ec9b0"/><circle cx="291.2" cy="820.0640000000001" r="2.8080000000000003" fill="#3ea6ff"/><text x="260.0" y="884.0" text-anchor="middle" font-family="Helvetica,Arial" font-size="18" font-weight="700" fill="#1b2230">Fleet</text><text x="260.0" y="905.0" text-anchor="middle" font-family="Helvetica,Arial" font-size="14" fill="#6b7480">concert hall</text>
<rect x="340.0" y="740.0" width="120" height="120" rx="26.4" fill="#141a26"/><path d="M382.84 824.12 v-14.040000000000001 a5.6160000000000005 5.6160000000000005 0 0 1 5.6160000000000005 -5.6160000000000005 h23.088 a5.6160000000000005 5.6160000000000005 0 0 1 5.6160000000000005 5.6160000000000005 v14.040000000000001" fill="none" stroke="#ff9a6b" stroke-width="3.1200000000000006"/><rect x="384.4" y="794.48" width="31.200000000000003" height="15.600000000000001" rx="3.744" fill="#ff9a6b"/><circle cx="400.0" cy="782.0" r="6.864000000000001" fill="#ff9a6b"/><text x="400.0" y="884.0" text-anchor="middle" font-family="Helvetica,Arial" font-size="18" font-weight="700" fill="#1b2230">Operator</text><text x="400.0" y="905.0" text-anchor="middle" font-family="Helvetica,Arial" font-size="14" fill="#6b7480">the patron</text>
<rect x="480.0" y="740.0" width="120" height="120" rx="26.4" fill="#141a26"/><path d="M519.72 800.72 Q540.0 769.52 560.28 800.72" fill="none" stroke="#3ec9b0" stroke-width="2.8080000000000003"/><ellipse cx="519.72" cy="808.52" rx="7.488" ry="5.6160000000000005" fill="#3ec9b0" transform="rotate(-20 519.72 808.52)"/><ellipse cx="560.28" cy="808.52" rx="7.488" ry="5.6160000000000005" fill="#3ec9b0" transform="rotate(-20 560.28 808.52)"/><path d="M554.976 793.856 L560.592 801.344 L564.96 791.984" fill="none" stroke="#3ec9b0" stroke-width="2.8080000000000003" stroke-linecap="round" stroke-linejoin="round"/><text x="540.0" y="884.0" text-anchor="middle" font-family="Helvetica,Arial" font-size="18" font-weight="700" fill="#1b2230">Handoff</text><text x="540.0" y="905.0" text-anchor="middle" font-family="Helvetica,Arial" font-size="14" fill="#6b7480">pass the motif</text>
<rect x="620.0" y="740.0" width="120" height="120" rx="26.4" fill="#141a26"/><path d="M664.4 825.6800000000001 L695.6 825.6800000000001 L688.112 769.52 L671.888 769.52z" fill="none" stroke="#f0b84c" stroke-width="3.4320000000000004" stroke-linejoin="round"/><line x1="680.0" y1="816.32" x2="686.864" y2="774.2" stroke="#f0b84c" stroke-width="2.8080000000000003" stroke-linecap="round"/><rect x="680.936" y="792.9200000000001" width="6.240000000000001" height="4.680000000000001" fill="#f0b84c"/><text x="680.0" y="884.0" text-anchor="middle" font-family="Helvetica,Arial" font-size="18" font-weight="700" fill="#1b2230">Cost / burn</text><text x="680.0" y="905.0" text-anchor="middle" font-family="Helvetica,Arial" font-size="14" fill="#6b7480">tempo</text>
<rect x="760.0" y="740.0" width="120" height="120" rx="26.4" fill="#141a26"/><circle cx="820.0" cy="797.6" r="26.520000000000003" fill="none" stroke="#6fd08a" stroke-width="3.1200000000000006"/><path d="M807.52 797.6 L816.88 808.52 L834.04 785.12" fill="none" stroke="#6fd08a" stroke-width="4.056000000000001" stroke-linecap="round" stroke-linejoin="round"/><text x="820.0" y="884.0" text-anchor="middle" font-family="Helvetica,Arial" font-size="18" font-weight="700" fill="#1b2230">Health</text><text x="820.0" y="905.0" text-anchor="middle" font-family="Helvetica,Arial" font-size="14" fill="#6b7480">in tune</text>
<text x="60" y="1040" font-family="Helvetica,Arial" font-size="25" font-weight="800" fill="#1b2230">SUPPORT / FRONT-DESK</text>
<rect x="60.0" y="1070.0" width="120" height="120" rx="26.4" fill="#141a26"/><path d="M100.11 1140.86 a19.89 19.89 0 0 1 39.78 0z" fill="#ff9a6b"/><rect x="97.458" y="1140.86" width="45.084" height="4.7736" rx="2.3868" fill="#ff9a6b"/><circle cx="120.0" cy="1118.318" r="4.243200000000001" fill="#ff9a6b"/><path d="M87.24 1119.8 q-6.864000000000001 10.92 0 21.84" fill="none" stroke="#ff9a6b" stroke-width="2.8080000000000003" stroke-linecap="round"/><path d="M152.76 1119.8 q6.864000000000001 10.92 0 21.84" fill="none" stroke="#ff9a6b" stroke-width="2.8080000000000003" stroke-linecap="round"/><text x="120.0" y="1214.0" text-anchor="middle" font-family="Helvetica,Arial" font-size="18" font-weight="700" fill="#1b2230">New request</text><text x="120.0" y="1235.0" text-anchor="middle" font-family="Helvetica,Arial" font-size="14" fill="#6b7480">bell rings</text>
<rect x="200.0" y="1070.0" width="120" height="120" rx="26.4" fill="#141a26"/><rect x="233.48" y="1110.4399999999998" width="53.040000000000006" height="34.32000000000001" rx="3.1200000000000006" fill="none" stroke="#ff9a6b" stroke-width="3.1200000000000006"/><path d="M233.48 1112.0 L260.0 1132.28 L286.52 1112.0" fill="none" stroke="#ff9a6b" stroke-width="3.1200000000000006"/><text x="260.0" y="1214.0" text-anchor="middle" font-family="Helvetica,Arial" font-size="18" font-weight="700" fill="#1b2230">Message</text><text x="260.0" y="1235.0" text-anchor="middle" font-family="Helvetica,Arial" font-size="14" fill="#6b7480">inbound note</text>
<rect x="340.0" y="1070.0" width="120" height="120" rx="26.4" fill="#141a26"/><rect x="371.92" y="1113.56" width="56.160000000000004" height="28.080000000000002" rx="3.744" fill="none" stroke="#ffd36b" stroke-width="3.1200000000000006"/><line x1="406.24" y1="1113.56" x2="406.24" y2="1141.6399999999999" stroke="#ffd36b" stroke-width="2.1840000000000006" stroke-dasharray="3.1200000000000006,3.1200000000000006"/><circle cx="389.08" cy="1127.6" r="4.368000000000001" fill="#ffd36b"/><text x="400.0" y="1214.0" text-anchor="middle" font-family="Helvetica,Arial" font-size="18" font-weight="700" fill="#1b2230">Ticket stub</text><text x="400.0" y="1235.0" text-anchor="middle" font-family="Helvetica,Arial" font-size="14" fill="#6b7480">box office</text>
</svg>