<svg xmlns="http://www.w3.org/2000/svg" width="816" height="300" viewBox="0 0 816 300">
<rect width="816" height="300" fill="#eef0f3"/>
<text x="60" y="50" font-family="Helvetica,Arial" font-size="25" font-weight="800" fill="#1b2230">EPIC FORMS</text>
<text x="60" y="74" font-family="Helvetica,Arial" font-size="15" fill="#6b7480">large-scale musical forms &#8212; a distinct mark per epic shape (owned SVG; PWA / fleet-console layer)</text>
<rect x="60.0" y="95.0" width="120" height="120" rx="26.4" fill="#141a26"/><path d="M96.6 121.39999999999999 q-8.736000000000002 1.5600000000000003 -8.736000000000002 14.040000000000001 q0 9.360000000000001 -6.864000000000001 15.600000000000001 q6.864000000000001 6.240000000000001 6.864000000000001 15.600000000000001 q0 12.480000000000002 8.736000000000002 14.040000000000001" fill="none" stroke="#ffd36b" stroke-width="3.744" stroke-linecap="round"/><line x1="112.2" y1="129.512" x2="146.52" y2="129.512" stroke="#ffd36b" stroke-width="1.5600000000000003"/><line x1="112.2" y1="133.256" x2="146.52" y2="133.256" stroke="#ffd36b" stroke-width="1.5600000000000003"/><line x1="112.2" y1="137.0" x2="146.52" y2="137.0" stroke="#ffd36b" stroke-width="1.5600000000000003"/><line x1="112.2" y1="148.856" x2="146.52" y2="148.856" stroke="#ffd36b" stroke-width="1.5600000000000003"/><line x1="112.2" y1="152.6" x2="146.52" y2="152.6" stroke="#ffd36b" stroke-width="1.5600000000000003"/><line x1="112.2" y1="156.344" x2="146.52" y2="156.344" stroke="#ffd36b" stroke-width="1.5600000000000003"/><line x1="112.2" y1="168.2" x2="146.52" y2="168.2" stroke="#ffd36b" stroke-width="1.5600000000000003"/><line x1="112.2" y1="171.944" x2="146.52" y2="171.944" stroke="#ffd36b" stroke-width="1.5600000000000003"/><line x1="112.2" y1="175.688" x2="146.52" y2="175.688" stroke="#ffd36b" stroke-width="1.5600000000000003"/><text x="120.0" y="239.0" text-anchor="middle" font-family="Helvetica,Arial" font-size="18" font-weight="700" fill="#1b2230">Symphony</text><text x="120.0" y="260.0" text-anchor="middle" font-family="Helvetica,Arial" font-size="13" fill="#6b7480">multi-movement work</text>
<rect x="204.0" y="95.0" width="120" height="120" rx="26.4" fill="#141a26"/><circle cx="242.160" cy="130.136" r="4.056" fill="#3ea6ff"/><circle cx="264.000" cy="124.520" r="4.056" fill="#3ea6ff"/><circle cx="285.840" cy="130.136" r="4.056" fill="#3ea6ff"/><rect x="270.864" y="137.000" width="3.120" height="29.640" fill="#3ea6ff"/><ellipse cx="264.000" cy="166.640" rx="9.984" ry="7.800" fill="#3ea6ff" transform="rotate(-18 264.000 166.640)"/><text x="264.0" y="239.0" text-anchor="middle" font-family="Helvetica,Arial" font-size="18" font-weight="700" fill="#1b2230">Concerto</text><text x="264.0" y="260.0" text-anchor="middle" font-family="Helvetica,Arial" font-size="13" fill="#6b7480">soloist + tutti</text>
<rect x="348.0" y="95.0" width="120" height="120" rx="26.4" fill="#141a26"/><path d="M383.040 135.440 v-6.864 h49.920 v6.864" fill="none" stroke="#a68cff" stroke-width="3.744" stroke-linejoin="round"/><ellipse cx="389.280" cy="168.200" rx="6.240" ry="4.992" fill="#a68cff" transform="rotate(-18 389.280 168.200)"/><rect x="393.336" y="148.856" width="2.496" height="19.344" fill="#a68cff"/><ellipse cx="408.000" cy="168.200" rx="6.240" ry="4.992" fill="#a68cff" transform="rotate(-18 408.000 168.200)"/><rect x="412.056" y="148.856" width="2.496" height="19.344" fill="#a68cff"/><ellipse cx="426.720" cy="168.200" rx="6.240" ry="4.992" fill="#a68cff" transform="rotate(-18 426.720 168.200)"/><rect x="430.776" y="148.856" width="2.496" height="19.344" fill="#a68cff"/><text x="408.0" y="239.0" text-anchor="middle" font-family="Helvetica,Arial" font-size="18" font-weight="700" fill="#1b2230">Suite</text><text x="408.0" y="260.0" text-anchor="middle" font-family="Helvetica,Arial" font-size="13" fill="#6b7480">set of movements</text>
<rect x="492.0" y="95.0" width="120" height="120" rx="26.4" fill="#141a26"/><line x1="525.480" y1="176.000" x2="576.960" y2="135.440" stroke="#3ec9b0" stroke-width="2.184" stroke-linecap="round" opacity="0.85"/><ellipse cx="533.280" cy="169.760" rx="6.864" ry="5.304" fill="#3ec9b0" transform="rotate(-22 533.280 169.760)"/><rect x="537.648" y="151.040" width="2.496" height="18.720" fill="#3ec9b0"/><ellipse cx="551.064" cy="157.280" rx="6.864" ry="5.304" fill="#3ec9b0" transform="rotate(-22 551.064 157.280)"/><rect x="555.432" y="138.560" width="2.496" height="18.720" fill="#3ec9b0"/><ellipse cx="569.160" cy="144.800" rx="6.864" ry="5.304" fill="#3ec9b0" transform="rotate(-22 569.160 144.800)"/><rect x="573.528" y="126.080" width="2.496" height="18.720" fill="#3ec9b0"/><text x="552.0" y="239.0" text-anchor="middle" font-family="Helvetica,Arial" font-size="18" font-weight="700" fill="#1b2230">Fugue</text><text x="552.0" y="260.0" text-anchor="middle" font-family="Helvetica,Arial" font-size="13" fill="#6b7480">parallel voices</text>
<rect x="636.0" y="95.0" width="120" height="120" rx="26.4" fill="#141a26"/><rect x="674.160" y="127.640" width="8.736" height="49.920" fill="#f0b84c"/><rect x="686.016" y="127.640" width="3.120" height="49.920" fill="#f0b84c"/><line x1="713.160" y1="141.680" x2="724.080" y2="132.944" stroke="#f0b84c" stroke-width="2.496" stroke-linecap="round"/><line x1="713.160" y1="141.680" x2="728.760" y2="141.680" stroke="#f0b84c" stroke-width="2.496" stroke-linecap="round"/><line x1="713.160" y1="141.680" x2="724.080" y2="150.416" stroke="#f0b84c" stroke-width="2.496" stroke-linecap="round"/><ellipse cx="706.920" cy="156.344" rx="7.488" ry="5.928" fill="#f0b84c" transform="rotate(-18 706.920 156.344)"/><rect x="711.912" y="134.504" width="2.808" height="21.840" fill="#f0b84c"/><text x="696.0" y="239.0" text-anchor="middle" font-family="Helvetica,Arial" font-size="18" font-weight="700" fill="#1b2230">Overture</text><text x="696.0" y="260.0" text-anchor="middle" font-family="Helvetica,Arial" font-size="13" fill="#6b7480">kickoff / foundation</text>
</svg>