<svg xmlns="http://www.w3.org/2000/svg" width="1500" height="1080" viewBox="0 0 1500 1080">
  <defs><linearGradient id="bg" x1="0" y1="0" x2="1" y2="1">
    <stop offset="0" stop-color="#1c2233"/><stop offset="1" stop-color="#0b0f18"/>
  </linearGradient></defs>
  <rect width="1500" height="1080" fill="#eef0f3"/>
  <text x="70" y="70" font-family="Helvetica,Arial" font-size="30" font-weight="800" fill="#1b2230">DYNAMICS — how busy the swarm is</text>
  <text x="70" y="100" font-family="Helvetica,Arial" font-size="19" fill="#6b7480">pianissimo &#8594; fortissimo: dot size, brightness &amp; downbeat scale with activity</text>

  <rect x="170.0" y="110.0" width="300" height="300" rx="66.0" fill="url(#bg)"/>
  <circle cx="278.2" cy="309.8" r="5.0" fill="#ffd36b" opacity="1.00"/><circle cx="292.1" cy="296.0" r="5.0" fill="#ffd36b" opacity="1.00"/><circle cx="310.2" cy="288.6" r="5.0" fill="#ffd36b" opacity="1.00"/><circle cx="329.8" cy="288.6" r="5.0" fill="#ffd36b" opacity="1.00"/><circle cx="347.9" cy="296.0" r="5.0" fill="#ffd36b" opacity="1.00"/><circle cx="361.8" cy="309.8" r="5.0" fill="#ffd36b" opacity="1.00"/><circle cx="254.3" cy="303.1" r="5.0" fill="#3ec9b0" opacity="1.00"/><circle cx="268.1" cy="284.7" r="5.0" fill="#3ec9b0" opacity="1.00"/><circle cx="286.7" cy="271.5" r="5.0" fill="#3ec9b0" opacity="1.00"/><circle cx="308.5" cy="264.5" r="5.0" fill="#3ec9b0" opacity="1.00"/><circle cx="331.5" cy="264.5" r="5.0" fill="#3ec9b0" opacity="1.00"/><circle cx="353.3" cy="271.5" r="5.0" fill="#3ec9b0" opacity="1.00"/><circle cx="371.9" cy="284.7" r="5.0" fill="#3ec9b0" opacity="1.00"/><circle cx="385.7" cy="303.1" r="5.0" fill="#3ec9b0" opacity="1.00"/><circle cx="230.1" cy="298.0" r="5.0" fill="#3ea6ff" opacity="1.00"/><circle cx="243.2" cy="276.5" r="5.0" fill="#3ea6ff" opacity="1.00"/><circle cx="261.2" cy="259.1" r="5.0" fill="#3ea6ff" opacity="1.00"/><circle cx="283.1" cy="246.8" r="5.0" fill="#3ea6ff" opacity="1.00"/><circle cx="307.4" cy="240.4" r="5.0" fill="#3ea6ff" opacity="1.00"/><circle cx="332.6" cy="240.4" r="5.0" fill="#3ea6ff" opacity="1.00"/><circle cx="356.9" cy="246.8" r="5.0" fill="#3ea6ff" opacity="1.00"/><circle cx="378.8" cy="259.1" r="5.0" fill="#3ea6ff" opacity="1.00"/><circle cx="396.8" cy="276.5" r="5.0" fill="#3ea6ff" opacity="1.00"/><circle cx="409.9" cy="298.0" r="5.0" fill="#3ea6ff" opacity="1.00"/><circle cx="208.7" cy="293.0" r="5.0" fill="#a68cff" opacity="1.00"/><circle cx="220.9" cy="270.3" r="5.0" fill="#a68cff" opacity="1.00"/><circle cx="237.7" cy="250.6" r="5.0" fill="#a68cff" opacity="1.00"/><circle cx="258.4" cy="235.0" r="5.0" fill="#a68cff" opacity="1.00"/><circle cx="281.8" cy="224.2" r="5.0" fill="#a68cff" opacity="1.00"/><circle cx="307.1" cy="218.7" r="5.0" fill="#a68cff" opacity="1.00"/><circle cx="332.9" cy="218.7" r="5.0" fill="#a68cff" opacity="1.00"/><circle cx="358.2" cy="224.2" r="5.0" fill="#a68cff" opacity="1.00"/><circle cx="381.6" cy="235.0" r="5.0" fill="#a68cff" opacity="1.00"/><circle cx="402.3" cy="250.6" r="5.0" fill="#a68cff" opacity="1.00"/><circle cx="419.1" cy="270.3" r="5.0" fill="#a68cff" opacity="1.00"/><circle cx="431.3" cy="293.0" r="5.0" fill="#a68cff" opacity="1.00"/><path d="M320 338.0 a29 29 0 0 0 -23 11 h46 a29 29 0 0 0 -23 -11z" fill="#f0b84c" opacity="1.00"/><g transform="rotate(20 320 338.0)"><rect x="317.6" y="302" width="4.8" height="36" rx="2.4" fill="#f4f7fa" opacity="1.00"/></g><path d="M330.8 289.9 l3.1 8.7 8.7 3.1 -8.7 3.1 -3.1 8.7 -3.1 -8.7 -8.7 -3.1 8.7 -3.1z" fill="#f0b84c" opacity="1.00"/>
  <text x="320" y="444.0" text-anchor="middle" font-family="Helvetica,Arial" font-size="24" font-weight="700" fill="#1b2230">pp · peaceful</text>
  <text x="320" y="470.0" text-anchor="middle" font-family="Helvetica,Arial" font-size="18" fill="#6b7480">idle / parked</text>

  <rect x="610.0" y="110.0" width="300" height="300" rx="66.0" fill="url(#bg)"/>
  <circle cx="718.2" cy="309.8" r="6.6" fill="#ffd36b" opacity="1.00"/><circle cx="732.1" cy="296.0" r="6.6" fill="#ffd36b" opacity="1.00"/><circle cx="750.2" cy="288.6" r="6.6" fill="#ffd36b" opacity="1.00"/><circle cx="769.8" cy="288.6" r="6.6" fill="#ffd36b" opacity="1.00"/><circle cx="787.9" cy="296.0" r="6.6" fill="#ffd36b" opacity="1.00"/><circle cx="801.8" cy="309.8" r="6.6" fill="#ffd36b" opacity="1.00"/><circle cx="694.3" cy="303.1" r="6.6" fill="#3ec9b0" opacity="1.00"/><circle cx="708.1" cy="284.7" r="6.6" fill="#3ec9b0" opacity="1.00"/><circle cx="726.7" cy="271.5" r="6.6" fill="#3ec9b0" opacity="1.00"/><circle cx="748.5" cy="264.5" r="6.6" fill="#3ec9b0" opacity="1.00"/><circle cx="771.5" cy="264.5" r="6.6" fill="#3ec9b0" opacity="1.00"/><circle cx="793.3" cy="271.5" r="6.6" fill="#3ec9b0" opacity="1.00"/><circle cx="811.9" cy="284.7" r="6.6" fill="#3ec9b0" opacity="1.00"/><circle cx="825.7" cy="303.1" r="6.6" fill="#3ec9b0" opacity="1.00"/><circle cx="670.1" cy="298.0" r="6.6" fill="#3ea6ff" opacity="1.00"/><circle cx="683.2" cy="276.5" r="6.6" fill="#3ea6ff" opacity="1.00"/><circle cx="701.2" cy="259.1" r="6.6" fill="#3ea6ff" opacity="1.00"/><circle cx="723.1" cy="246.8" r="6.6" fill="#3ea6ff" opacity="1.00"/><circle cx="747.4" cy="240.4" r="6.6" fill="#3ea6ff" opacity="1.00"/><circle cx="772.6" cy="240.4" r="6.6" fill="#3ea6ff" opacity="1.00"/><circle cx="796.9" cy="246.8" r="6.6" fill="#3ea6ff" opacity="1.00"/><circle cx="818.8" cy="259.1" r="6.6" fill="#3ea6ff" opacity="1.00"/><circle cx="836.8" cy="276.5" r="6.6" fill="#3ea6ff" opacity="1.00"/><circle cx="849.9" cy="298.0" r="6.6" fill="#3ea6ff" opacity="1.00"/><circle cx="648.7" cy="293.0" r="6.6" fill="#a68cff" opacity="1.00"/><circle cx="660.9" cy="270.3" r="6.6" fill="#a68cff" opacity="1.00"/><circle cx="677.7" cy="250.6" r="6.6" fill="#a68cff" opacity="1.00"/><circle cx="698.4" cy="235.0" r="6.6" fill="#a68cff" opacity="1.00"/><circle cx="721.8" cy="224.2" r="6.6" fill="#a68cff" opacity="1.00"/><circle cx="747.1" cy="218.7" r="6.6" fill="#a68cff" opacity="1.00"/><circle cx="772.9" cy="218.7" r="6.6" fill="#a68cff" opacity="1.00"/><circle cx="798.2" cy="224.2" r="6.6" fill="#a68cff" opacity="1.00"/><circle cx="821.6" cy="235.0" r="6.6" fill="#a68cff" opacity="1.00"/><circle cx="842.3" cy="250.6" r="6.6" fill="#a68cff" opacity="1.00"/><circle cx="859.1" cy="270.3" r="6.6" fill="#a68cff" opacity="1.00"/><circle cx="871.3" cy="293.0" r="6.6" fill="#a68cff" opacity="1.00"/><path d="M760 338.0 a29 29 0 0 0 -23 11 h46 a29 29 0 0 0 -23 -11z" fill="#f0b84c" opacity="1.00"/><g transform="rotate(20 760 338.0)"><rect x="757.6" y="302" width="4.8" height="36" rx="2.4" fill="#f4f7fa" opacity="1.00"/></g><path d="M770.8 283.2 l5.3 14.8 14.8 5.3 -14.8 5.3 -5.3 14.8 -5.3 -14.8 -14.8 -5.3 14.8 -5.3z" fill="#f0b84c" opacity="1.00"/>
  <text x="760" y="444.0" text-anchor="middle" font-family="Helvetica,Arial" font-size="24" font-weight="700" fill="#1b2230">mf · working</text>
  <text x="760" y="470.0" text-anchor="middle" font-family="Helvetica,Arial" font-size="18" fill="#6b7480">steady dispatch</text>

  <rect x="1050.0" y="110.0" width="300" height="300" rx="66.0" fill="url(#bg)"/>
  <circle cx="1158.2" cy="309.8" r="17.7" fill="#ffd36b" opacity="0.16"/><circle cx="1158.2" cy="309.8" r="8.4" fill="#ffd36b" opacity="1.00"/><circle cx="1172.1" cy="296.0" r="17.7" fill="#ffd36b" opacity="0.16"/><circle cx="1172.1" cy="296.0" r="8.4" fill="#ffd36b" opacity="1.00"/><circle cx="1190.2" cy="288.6" r="17.7" fill="#ffd36b" opacity="0.16"/><circle cx="1190.2" cy="288.6" r="8.4" fill="#ffd36b" opacity="1.00"/><circle cx="1209.8" cy="288.6" r="17.7" fill="#ffd36b" opacity="0.16"/><circle cx="1209.8" cy="288.6" r="8.4" fill="#ffd36b" opacity="1.00"/><circle cx="1227.9" cy="296.0" r="17.7" fill="#ffd36b" opacity="0.16"/><circle cx="1227.9" cy="296.0" r="8.4" fill="#ffd36b" opacity="1.00"/><circle cx="1241.8" cy="309.8" r="17.7" fill="#ffd36b" opacity="0.16"/><circle cx="1241.8" cy="309.8" r="8.4" fill="#ffd36b" opacity="1.00"/><circle cx="1134.3" cy="303.1" r="17.7" fill="#3ec9b0" opacity="0.16"/><circle cx="1134.3" cy="303.1" r="8.4" fill="#3ec9b0" opacity="1.00"/><circle cx="1148.1" cy="284.7" r="17.7" fill="#3ec9b0" opacity="0.16"/><circle cx="1148.1" cy="284.7" r="8.4" fill="#3ec9b0" opacity="1.00"/><circle cx="1166.7" cy="271.5" r="17.7" fill="#3ec9b0" opacity="0.16"/><circle cx="1166.7" cy="271.5" r="8.4" fill="#3ec9b0" opacity="1.00"/><circle cx="1188.5" cy="264.5" r="17.7" fill="#3ec9b0" opacity="0.16"/><circle cx="1188.5" cy="264.5" r="8.4" fill="#3ec9b0" opacity="1.00"/><circle cx="1211.5" cy="264.5" r="17.7" fill="#3ec9b0" opacity="0.16"/><circle cx="1211.5" cy="264.5" r="8.4" fill="#3ec9b0" opacity="1.00"/><circle cx="1233.3" cy="271.5" r="17.7" fill="#3ec9b0" opacity="0.16"/><circle cx="1233.3" cy="271.5" r="8.4" fill="#3ec9b0" opacity="1.00"/><circle cx="1251.9" cy="284.7" r="17.7" fill="#3ec9b0" opacity="0.16"/><circle cx="1251.9" cy="284.7" r="8.4" fill="#3ec9b0" opacity="1.00"/><circle cx="1265.7" cy="303.1" r="17.7" fill="#3ec9b0" opacity="0.16"/><circle cx="1265.7" cy="303.1" r="8.4" fill="#3ec9b0" opacity="1.00"/><circle cx="1110.1" cy="298.0" r="17.7" fill="#3ea6ff" opacity="0.16"/><circle cx="1110.1" cy="298.0" r="8.4" fill="#3ea6ff" opacity="1.00"/><circle cx="1123.2" cy="276.5" r="17.7" fill="#3ea6ff" opacity="0.16"/><circle cx="1123.2" cy="276.5" r="8.4" fill="#3ea6ff" opacity="1.00"/><circle cx="1141.2" cy="259.1" r="17.7" fill="#3ea6ff" opacity="0.16"/><circle cx="1141.2" cy="259.1" r="8.4" fill="#3ea6ff" opacity="1.00"/><circle cx="1163.1" cy="246.8" r="17.7" fill="#3ea6ff" opacity="0.16"/><circle cx="1163.1" cy="246.8" r="8.4" fill="#3ea6ff" opacity="1.00"/><circle cx="1187.4" cy="240.4" r="17.7" fill="#3ea6ff" opacity="0.16"/><circle cx="1187.4" cy="240.4" r="8.4" fill="#3ea6ff" opacity="1.00"/><circle cx="1212.6" cy="240.4" r="17.7" fill="#3ea6ff" opacity="0.16"/><circle cx="1212.6" cy="240.4" r="8.4" fill="#3ea6ff" opacity="1.00"/><circle cx="1236.9" cy="246.8" r="17.7" fill="#3ea6ff" opacity="0.16"/><circle cx="1236.9" cy="246.8" r="8.4" fill="#3ea6ff" opacity="1.00"/><circle cx="1258.8" cy="259.1" r="17.7" fill="#3ea6ff" opacity="0.16"/><circle cx="1258.8" cy="259.1" r="8.4" fill="#3ea6ff" opacity="1.00"/><circle cx="1276.8" cy="276.5" r="17.7" fill="#3ea6ff" opacity="0.16"/><circle cx="1276.8" cy="276.5" r="8.4" fill="#3ea6ff" opacity="1.00"/><circle cx="1289.9" cy="298.0" r="17.7" fill="#3ea6ff" opacity="0.16"/><circle cx="1289.9" cy="298.0" r="8.4" fill="#3ea6ff" opacity="1.00"/><circle cx="1088.7" cy="293.0" r="17.7" fill="#a68cff" opacity="0.16"/><circle cx="1088.7" cy="293.0" r="8.4" fill="#a68cff" opacity="1.00"/><circle cx="1100.9" cy="270.3" r="17.7" fill="#a68cff" opacity="0.16"/><circle cx="1100.9" cy="270.3" r="8.4" fill="#a68cff" opacity="1.00"/><circle cx="1117.7" cy="250.6" r="17.7" fill="#a68cff" opacity="0.16"/><circle cx="1117.7" cy="250.6" r="8.4" fill="#a68cff" opacity="1.00"/><circle cx="1138.4" cy="235.0" r="17.7" fill="#a68cff" opacity="0.16"/><circle cx="1138.4" cy="235.0" r="8.4" fill="#a68cff" opacity="1.00"/><circle cx="1161.8" cy="224.2" r="17.7" fill="#a68cff" opacity="0.16"/><circle cx="1161.8" cy="224.2" r="8.4" fill="#a68cff" opacity="1.00"/><circle cx="1187.1" cy="218.7" r="17.7" fill="#a68cff" opacity="0.16"/><circle cx="1187.1" cy="218.7" r="8.4" fill="#a68cff" opacity="1.00"/><circle cx="1212.9" cy="218.7" r="17.7" fill="#a68cff" opacity="0.16"/><circle cx="1212.9" cy="218.7" r="8.4" fill="#a68cff" opacity="1.00"/><circle cx="1238.2" cy="224.2" r="17.7" fill="#a68cff" opacity="0.16"/><circle cx="1238.2" cy="224.2" r="8.4" fill="#a68cff" opacity="1.00"/><circle cx="1261.6" cy="235.0" r="17.7" fill="#a68cff" opacity="0.16"/><circle cx="1261.6" cy="235.0" r="8.4" fill="#a68cff" opacity="1.00"/><circle cx="1282.3" cy="250.6" r="17.7" fill="#a68cff" opacity="0.16"/><circle cx="1282.3" cy="250.6" r="8.4" fill="#a68cff" opacity="1.00"/><circle cx="1299.1" cy="270.3" r="17.7" fill="#a68cff" opacity="0.16"/><circle cx="1299.1" cy="270.3" r="8.4" fill="#a68cff" opacity="1.00"/><circle cx="1311.3" cy="293.0" r="17.7" fill="#a68cff" opacity="0.16"/><circle cx="1311.3" cy="293.0" r="8.4" fill="#a68cff" opacity="1.00"/><path d="M1200 338.0 a29 29 0 0 0 -23 11 h46 a29 29 0 0 0 -23 -11z" fill="#f0b84c" opacity="1.00"/><g transform="rotate(20 1200 338.0)"><rect x="1197.6" y="302" width="4.8" height="36" rx="2.4" fill="#f4f7fa" opacity="1.00"/></g><circle cx="1210.8" cy="299.6" r="45.6" fill="#f0b84c" opacity="0.20"/><path d="M1210.8 275.6 l7.7 21.6 21.6 7.7 -21.6 7.7 -7.7 21.6 -7.7 -21.6 -21.6 -7.7 21.6 -7.7z" fill="#f0b84c" opacity="1.00"/>
  <text x="1200" y="444.0" text-anchor="middle" font-family="Helvetica,Arial" font-size="24" font-weight="700" fill="#1b2230">ff · tutti</text>
  <text x="1200" y="470.0" text-anchor="middle" font-family="Helvetica,Arial" font-size="18" fill="#6b7480">full swarm, dramatic</text>
<text x="70" y="620" font-family="Helvetica,Arial" font-size="30" font-weight="800" fill="#1b2230">FRESHNESS — how recent the information is</text>
  <text x="70" y="650" font-family="Helvetica,Arial" font-size="19" fill="#6b7480">colour desaturates toward grey and fades as the last report ages</text>

  <rect x="155.0" y="675.0" width="250" height="250" rx="55.0" fill="url(#bg)"/>
  <circle cx="245.2" cy="841.5" r="11.9" fill="#ffd36b" opacity="0.10"/><circle cx="245.2" cy="841.5" r="5.7" fill="#ffd36b" opacity="1.00"/><circle cx="256.8" cy="830.0" r="11.9" fill="#ffd36b" opacity="0.10"/><circle cx="256.8" cy="830.0" r="5.7" fill="#ffd36b" opacity="1.00"/><circle cx="271.8" cy="823.8" r="11.9" fill="#ffd36b" opacity="0.10"/><circle cx="271.8" cy="823.8" r="5.7" fill="#ffd36b" opacity="1.00"/><circle cx="288.2" cy="823.8" r="11.9" fill="#ffd36b" opacity="0.10"/><circle cx="288.2" cy="823.8" r="5.7" fill="#ffd36b" opacity="1.00"/><circle cx="303.2" cy="830.0" r="11.9" fill="#ffd36b" opacity="0.10"/><circle cx="303.2" cy="830.0" r="5.7" fill="#ffd36b" opacity="1.00"/><circle cx="314.8" cy="841.5" r="11.9" fill="#ffd36b" opacity="0.10"/><circle cx="314.8" cy="841.5" r="5.7" fill="#ffd36b" opacity="1.00"/><circle cx="225.3" cy="835.9" r="11.9" fill="#3ec9b0" opacity="0.10"/><circle cx="225.3" cy="835.9" r="5.7" fill="#3ec9b0" opacity="1.00"/><circle cx="236.7" cy="820.6" r="11.9" fill="#3ec9b0" opacity="0.10"/><circle cx="236.7" cy="820.6" r="5.7" fill="#3ec9b0" opacity="1.00"/><circle cx="252.3" cy="809.5" r="11.9" fill="#3ec9b0" opacity="0.10"/><circle cx="252.3" cy="809.5" r="5.7" fill="#3ec9b0" opacity="1.00"/><circle cx="270.5" cy="803.7" r="11.9" fill="#3ec9b0" opacity="0.10"/><circle cx="270.5" cy="803.7" r="5.7" fill="#3ec9b0" opacity="1.00"/><circle cx="289.5" cy="803.7" r="11.9" fill="#3ec9b0" opacity="0.10"/><circle cx="289.5" cy="803.7" r="5.7" fill="#3ec9b0" opacity="1.00"/><circle cx="307.7" cy="809.5" r="11.9" fill="#3ec9b0" opacity="0.10"/><circle cx="307.7" cy="809.5" r="5.7" fill="#3ec9b0" opacity="1.00"/><circle cx="323.3" cy="820.6" r="11.9" fill="#3ec9b0" opacity="0.10"/><circle cx="323.3" cy="820.6" r="5.7" fill="#3ec9b0" opacity="1.00"/><circle cx="334.7" cy="835.9" r="11.9" fill="#3ec9b0" opacity="0.10"/><circle cx="334.7" cy="835.9" r="5.7" fill="#3ec9b0" opacity="1.00"/><circle cx="205.1" cy="831.6" r="11.9" fill="#3ea6ff" opacity="0.10"/><circle cx="205.1" cy="831.6" r="5.7" fill="#3ea6ff" opacity="1.00"/><circle cx="216.0" cy="813.8" r="11.9" fill="#3ea6ff" opacity="0.10"/><circle cx="216.0" cy="813.8" r="5.7" fill="#3ea6ff" opacity="1.00"/><circle cx="231.0" cy="799.2" r="11.9" fill="#3ea6ff" opacity="0.10"/><circle cx="231.0" cy="799.2" r="5.7" fill="#3ea6ff" opacity="1.00"/><circle cx="249.3" cy="789.0" r="11.9" fill="#3ea6ff" opacity="0.10"/><circle cx="249.3" cy="789.0" r="5.7" fill="#3ea6ff" opacity="1.00"/><circle cx="269.5" cy="783.7" r="11.9" fill="#3ea6ff" opacity="0.10"/><circle cx="269.5" cy="783.7" r="5.7" fill="#3ea6ff" opacity="1.00"/><circle cx="290.5" cy="783.7" r="11.9" fill="#3ea6ff" opacity="0.10"/><circle cx="290.5" cy="783.7" r="5.7" fill="#3ea6ff" opacity="1.00"/><circle cx="310.7" cy="789.0" r="11.9" fill="#3ea6ff" opacity="0.10"/><circle cx="310.7" cy="789.0" r="5.7" fill="#3ea6ff" opacity="1.00"/><circle cx="329.0" cy="799.2" r="11.9" fill="#3ea6ff" opacity="0.10"/><circle cx="329.0" cy="799.2" r="5.7" fill="#3ea6ff" opacity="1.00"/><circle cx="344.0" cy="813.8" r="11.9" fill="#3ea6ff" opacity="0.10"/><circle cx="344.0" cy="813.8" r="5.7" fill="#3ea6ff" opacity="1.00"/><circle cx="354.9" cy="831.6" r="11.9" fill="#3ea6ff" opacity="0.10"/><circle cx="354.9" cy="831.6" r="5.7" fill="#3ea6ff" opacity="1.00"/><circle cx="187.3" cy="827.5" r="11.9" fill="#a68cff" opacity="0.10"/><circle cx="187.3" cy="827.5" r="5.7" fill="#a68cff" opacity="1.00"/><circle cx="197.5" cy="808.6" r="11.9" fill="#a68cff" opacity="0.10"/><circle cx="197.5" cy="808.6" r="5.7" fill="#a68cff" opacity="1.00"/><circle cx="211.5" cy="792.2" r="11.9" fill="#a68cff" opacity="0.10"/><circle cx="211.5" cy="792.2" r="5.7" fill="#a68cff" opacity="1.00"/><circle cx="228.6" cy="779.2" r="11.9" fill="#a68cff" opacity="0.10"/><circle cx="228.6" cy="779.2" r="5.7" fill="#a68cff" opacity="1.00"/><circle cx="248.2" cy="770.2" r="11.9" fill="#a68cff" opacity="0.10"/><circle cx="248.2" cy="770.2" r="5.7" fill="#a68cff" opacity="1.00"/><circle cx="269.2" cy="765.6" r="11.9" fill="#a68cff" opacity="0.10"/><circle cx="269.2" cy="765.6" r="5.7" fill="#a68cff" opacity="1.00"/><circle cx="290.8" cy="765.6" r="11.9" fill="#a68cff" opacity="0.10"/><circle cx="290.8" cy="765.6" r="5.7" fill="#a68cff" opacity="1.00"/><circle cx="311.8" cy="770.2" r="11.9" fill="#a68cff" opacity="0.10"/><circle cx="311.8" cy="770.2" r="5.7" fill="#a68cff" opacity="1.00"/><circle cx="331.4" cy="779.2" r="11.9" fill="#a68cff" opacity="0.10"/><circle cx="331.4" cy="779.2" r="5.7" fill="#a68cff" opacity="1.00"/><circle cx="348.5" cy="792.2" r="11.9" fill="#a68cff" opacity="0.10"/><circle cx="348.5" cy="792.2" r="5.7" fill="#a68cff" opacity="1.00"/><circle cx="362.5" cy="808.6" r="11.9" fill="#a68cff" opacity="0.10"/><circle cx="362.5" cy="808.6" r="5.7" fill="#a68cff" opacity="1.00"/><circle cx="372.7" cy="827.5" r="11.9" fill="#a68cff" opacity="0.10"/><circle cx="372.7" cy="827.5" r="5.7" fill="#a68cff" opacity="1.00"/><path d="M280 865.0 a24 24 0 0 0 -19 9 h38 a24 24 0 0 0 -19 -9z" fill="#f0b84c" opacity="1.00"/><g transform="rotate(20 280 865.0)"><rect x="278.0" y="835" width="4.0" height="30" rx="2.0" fill="#f4f7fa" opacity="1.00"/></g><circle cx="289.0" cy="833.0" r="27.4" fill="#f0b84c" opacity="0.20"/><path d="M289.0 818.6 l4.6 13.0 13.0 4.6 -13.0 4.6 -4.6 13.0 -4.6 -13.0 -13.0 -4.6 13.0 -4.6z" fill="#f0b84c" opacity="1.00"/>
  <text x="280" y="959.0" text-anchor="middle" font-family="Helvetica,Arial" font-size="24" font-weight="700" fill="#1b2230">now</text>
  <text x="280" y="985.0" text-anchor="middle" font-family="Helvetica,Arial" font-size="18" fill="#6b7480">just reported</text>

  <rect x="525.0" y="675.0" width="250" height="250" rx="55.0" fill="url(#bg)"/>
  <circle cx="615.2" cy="841.5" r="11.9" fill="#eed393" opacity="0.07"/><circle cx="615.2" cy="841.5" r="5.7" fill="#eed393" opacity="0.70"/><circle cx="626.8" cy="830.0" r="11.9" fill="#eed393" opacity="0.07"/><circle cx="626.8" cy="830.0" r="5.7" fill="#eed393" opacity="0.70"/><circle cx="641.8" cy="823.8" r="11.9" fill="#eed393" opacity="0.07"/><circle cx="641.8" cy="823.8" r="5.7" fill="#eed393" opacity="0.70"/><circle cx="658.2" cy="823.8" r="11.9" fill="#eed393" opacity="0.07"/><circle cx="658.2" cy="823.8" r="5.7" fill="#eed393" opacity="0.70"/><circle cx="673.2" cy="830.0" r="11.9" fill="#eed393" opacity="0.07"/><circle cx="673.2" cy="830.0" r="5.7" fill="#eed393" opacity="0.70"/><circle cx="684.8" cy="841.5" r="11.9" fill="#eed393" opacity="0.07"/><circle cx="684.8" cy="841.5" r="5.7" fill="#eed393" opacity="0.70"/><circle cx="595.3" cy="835.9" r="11.9" fill="#61b8a8" opacity="0.07"/><circle cx="595.3" cy="835.9" r="5.7" fill="#61b8a8" opacity="0.70"/><circle cx="606.7" cy="820.6" r="11.9" fill="#61b8a8" opacity="0.07"/><circle cx="606.7" cy="820.6" r="5.7" fill="#61b8a8" opacity="0.70"/><circle cx="622.3" cy="809.5" r="11.9" fill="#61b8a8" opacity="0.07"/><circle cx="622.3" cy="809.5" r="5.7" fill="#61b8a8" opacity="0.70"/><circle cx="640.5" cy="803.7" r="11.9" fill="#61b8a8" opacity="0.07"/><circle cx="640.5" cy="803.7" r="5.7" fill="#61b8a8" opacity="0.70"/><circle cx="659.5" cy="803.7" r="11.9" fill="#61b8a8" opacity="0.07"/><circle cx="659.5" cy="803.7" r="5.7" fill="#61b8a8" opacity="0.70"/><circle cx="677.7" cy="809.5" r="11.9" fill="#61b8a8" opacity="0.07"/><circle cx="677.7" cy="809.5" r="5.7" fill="#61b8a8" opacity="0.70"/><circle cx="693.3" cy="820.6" r="11.9" fill="#61b8a8" opacity="0.07"/><circle cx="693.3" cy="820.6" r="5.7" fill="#61b8a8" opacity="0.70"/><circle cx="704.7" cy="835.9" r="11.9" fill="#61b8a8" opacity="0.07"/><circle cx="704.7" cy="835.9" r="5.7" fill="#61b8a8" opacity="0.70"/><circle cx="575.1" cy="831.6" r="11.9" fill="#5d9dd5" opacity="0.07"/><circle cx="575.1" cy="831.6" r="5.7" fill="#5d9dd5" opacity="0.70"/><circle cx="586.0" cy="813.8" r="11.9" fill="#5d9dd5" opacity="0.07"/><circle cx="586.0" cy="813.8" r="5.7" fill="#5d9dd5" opacity="0.70"/><circle cx="601.0" cy="799.2" r="11.9" fill="#5d9dd5" opacity="0.07"/><circle cx="601.0" cy="799.2" r="5.7" fill="#5d9dd5" opacity="0.70"/><circle cx="619.3" cy="789.0" r="11.9" fill="#5d9dd5" opacity="0.07"/><circle cx="619.3" cy="789.0" r="5.7" fill="#5d9dd5" opacity="0.70"/><circle cx="639.5" cy="783.7" r="11.9" fill="#5d9dd5" opacity="0.07"/><circle cx="639.5" cy="783.7" r="5.7" fill="#5d9dd5" opacity="0.70"/><circle cx="660.5" cy="783.7" r="11.9" fill="#5d9dd5" opacity="0.07"/><circle cx="660.5" cy="783.7" r="5.7" fill="#5d9dd5" opacity="0.70"/><circle cx="680.7" cy="789.0" r="11.9" fill="#5d9dd5" opacity="0.07"/><circle cx="680.7" cy="789.0" r="5.7" fill="#5d9dd5" opacity="0.70"/><circle cx="699.0" cy="799.2" r="11.9" fill="#5d9dd5" opacity="0.07"/><circle cx="699.0" cy="799.2" r="5.7" fill="#5d9dd5" opacity="0.70"/><circle cx="714.0" cy="813.8" r="11.9" fill="#5d9dd5" opacity="0.07"/><circle cx="714.0" cy="813.8" r="5.7" fill="#5d9dd5" opacity="0.70"/><circle cx="724.9" cy="831.6" r="11.9" fill="#5d9dd5" opacity="0.07"/><circle cx="724.9" cy="831.6" r="5.7" fill="#5d9dd5" opacity="0.70"/><circle cx="557.3" cy="827.5" r="11.9" fill="#a393db" opacity="0.07"/><circle cx="557.3" cy="827.5" r="5.7" fill="#a393db" opacity="0.70"/><circle cx="567.5" cy="808.6" r="11.9" fill="#a393db" opacity="0.07"/><circle cx="567.5" cy="808.6" r="5.7" fill="#a393db" opacity="0.70"/><circle cx="581.5" cy="792.2" r="11.9" fill="#a393db" opacity="0.07"/><circle cx="581.5" cy="792.2" r="5.7" fill="#a393db" opacity="0.70"/><circle cx="598.6" cy="779.2" r="11.9" fill="#a393db" opacity="0.07"/><circle cx="598.6" cy="779.2" r="5.7" fill="#a393db" opacity="0.70"/><circle cx="618.2" cy="770.2" r="11.9" fill="#a393db" opacity="0.07"/><circle cx="618.2" cy="770.2" r="5.7" fill="#a393db" opacity="0.70"/><circle cx="639.2" cy="765.6" r="11.9" fill="#a393db" opacity="0.07"/><circle cx="639.2" cy="765.6" r="5.7" fill="#a393db" opacity="0.70"/><circle cx="660.8" cy="765.6" r="11.9" fill="#a393db" opacity="0.07"/><circle cx="660.8" cy="765.6" r="5.7" fill="#a393db" opacity="0.70"/><circle cx="681.8" cy="770.2" r="11.9" fill="#a393db" opacity="0.07"/><circle cx="681.8" cy="770.2" r="5.7" fill="#a393db" opacity="0.70"/><circle cx="701.4" cy="779.2" r="11.9" fill="#a393db" opacity="0.07"/><circle cx="701.4" cy="779.2" r="5.7" fill="#a393db" opacity="0.70"/><circle cx="718.5" cy="792.2" r="11.9" fill="#a393db" opacity="0.07"/><circle cx="718.5" cy="792.2" r="5.7" fill="#a393db" opacity="0.70"/><circle cx="732.5" cy="808.6" r="11.9" fill="#a393db" opacity="0.07"/><circle cx="732.5" cy="808.6" r="5.7" fill="#a393db" opacity="0.70"/><circle cx="742.7" cy="827.5" r="11.9" fill="#a393db" opacity="0.07"/><circle cx="742.7" cy="827.5" r="5.7" fill="#a393db" opacity="0.70"/><path d="M650 865.0 a24 24 0 0 0 -19 9 h38 a24 24 0 0 0 -19 -9z" fill="#dcb976" opacity="0.70"/><g transform="rotate(20 650 865.0)"><rect x="648.0" y="835" width="4.0" height="30" rx="2.0" fill="#f4f6f8" opacity="0.70"/></g><circle cx="659.0" cy="833.0" r="27.4" fill="#dcb976" opacity="0.14"/><path d="M659.0 818.6 l4.6 13.0 13.0 4.6 -13.0 4.6 -4.6 13.0 -4.6 -13.0 -13.0 -4.6 13.0 -4.6z" fill="#dcb976" opacity="0.70"/>
  <text x="650" y="959.0" text-anchor="middle" font-family="Helvetica,Arial" font-size="24" font-weight="700" fill="#1b2230">~5 min</text>
  <text x="650" y="985.0" text-anchor="middle" font-family="Helvetica,Arial" font-size="18" fill="#6b7480">recent</text>

  <rect x="895.0" y="675.0" width="250" height="250" rx="55.0" fill="url(#bg)"/>
  <circle cx="985.2" cy="841.5" r="11.9" fill="#e2d4b2" opacity="0.05"/><circle cx="985.2" cy="841.5" r="5.7" fill="#e2d4b2" opacity="0.47"/><circle cx="996.8" cy="830.0" r="11.9" fill="#e2d4b2" opacity="0.05"/><circle cx="996.8" cy="830.0" r="5.7" fill="#e2d4b2" opacity="0.47"/><circle cx="1011.8" cy="823.8" r="11.9" fill="#e2d4b2" opacity="0.05"/><circle cx="1011.8" cy="823.8" r="5.7" fill="#e2d4b2" opacity="0.47"/><circle cx="1028.2" cy="823.8" r="11.9" fill="#e2d4b2" opacity="0.05"/><circle cx="1028.2" cy="823.8" r="5.7" fill="#e2d4b2" opacity="0.47"/><circle cx="1043.2" cy="830.0" r="11.9" fill="#e2d4b2" opacity="0.05"/><circle cx="1043.2" cy="830.0" r="5.7" fill="#e2d4b2" opacity="0.47"/><circle cx="1054.8" cy="841.5" r="11.9" fill="#e2d4b2" opacity="0.05"/><circle cx="1054.8" cy="841.5" r="5.7" fill="#e2d4b2" opacity="0.47"/><circle cx="965.3" cy="835.9" r="11.9" fill="#7eaaa2" opacity="0.05"/><circle cx="965.3" cy="835.9" r="5.7" fill="#7eaaa2" opacity="0.47"/><circle cx="976.7" cy="820.6" r="11.9" fill="#7eaaa2" opacity="0.05"/><circle cx="976.7" cy="820.6" r="5.7" fill="#7eaaa2" opacity="0.47"/><circle cx="992.3" cy="809.5" r="11.9" fill="#7eaaa2" opacity="0.05"/><circle cx="992.3" cy="809.5" r="5.7" fill="#7eaaa2" opacity="0.47"/><circle cx="1010.5" cy="803.7" r="11.9" fill="#7eaaa2" opacity="0.05"/><circle cx="1010.5" cy="803.7" r="5.7" fill="#7eaaa2" opacity="0.47"/><circle cx="1029.5" cy="803.7" r="11.9" fill="#7eaaa2" opacity="0.05"/><circle cx="1029.5" cy="803.7" r="5.7" fill="#7eaaa2" opacity="0.47"/><circle cx="1047.7" cy="809.5" r="11.9" fill="#7eaaa2" opacity="0.05"/><circle cx="1047.7" cy="809.5" r="5.7" fill="#7eaaa2" opacity="0.47"/><circle cx="1063.3" cy="820.6" r="11.9" fill="#7eaaa2" opacity="0.05"/><circle cx="1063.3" cy="820.6" r="5.7" fill="#7eaaa2" opacity="0.47"/><circle cx="1074.7" cy="835.9" r="11.9" fill="#7eaaa2" opacity="0.05"/><circle cx="1074.7" cy="835.9" r="5.7" fill="#7eaaa2" opacity="0.47"/><circle cx="945.1" cy="831.6" r="11.9" fill="#7697b3" opacity="0.05"/><circle cx="945.1" cy="831.6" r="5.7" fill="#7697b3" opacity="0.47"/><circle cx="956.0" cy="813.8" r="11.9" fill="#7697b3" opacity="0.05"/><circle cx="956.0" cy="813.8" r="5.7" fill="#7697b3" opacity="0.47"/><circle cx="971.0" cy="799.2" r="11.9" fill="#7697b3" opacity="0.05"/><circle cx="971.0" cy="799.2" r="5.7" fill="#7697b3" opacity="0.47"/><circle cx="989.3" cy="789.0" r="11.9" fill="#7697b3" opacity="0.05"/><circle cx="989.3" cy="789.0" r="5.7" fill="#7697b3" opacity="0.47"/><circle cx="1009.5" cy="783.7" r="11.9" fill="#7697b3" opacity="0.05"/><circle cx="1009.5" cy="783.7" r="5.7" fill="#7697b3" opacity="0.47"/><circle cx="1030.5" cy="783.7" r="11.9" fill="#7697b3" opacity="0.05"/><circle cx="1030.5" cy="783.7" r="5.7" fill="#7697b3" opacity="0.47"/><circle cx="1050.7" cy="789.0" r="11.9" fill="#7697b3" opacity="0.05"/><circle cx="1050.7" cy="789.0" r="5.7" fill="#7697b3" opacity="0.47"/><circle cx="1069.0" cy="799.2" r="11.9" fill="#7697b3" opacity="0.05"/><circle cx="1069.0" cy="799.2" r="5.7" fill="#7697b3" opacity="0.47"/><circle cx="1084.0" cy="813.8" r="11.9" fill="#7697b3" opacity="0.05"/><circle cx="1084.0" cy="813.8" r="5.7" fill="#7697b3" opacity="0.47"/><circle cx="1094.9" cy="831.6" r="11.9" fill="#7697b3" opacity="0.05"/><circle cx="1094.9" cy="831.6" r="5.7" fill="#7697b3" opacity="0.47"/><circle cx="927.3" cy="827.5" r="11.9" fill="#a299be" opacity="0.05"/><circle cx="927.3" cy="827.5" r="5.7" fill="#a299be" opacity="0.47"/><circle cx="937.5" cy="808.6" r="11.9" fill="#a299be" opacity="0.05"/><circle cx="937.5" cy="808.6" r="5.7" fill="#a299be" opacity="0.47"/><circle cx="951.5" cy="792.2" r="11.9" fill="#a299be" opacity="0.05"/><circle cx="951.5" cy="792.2" r="5.7" fill="#a299be" opacity="0.47"/><circle cx="968.6" cy="779.2" r="11.9" fill="#a299be" opacity="0.05"/><circle cx="968.6" cy="779.2" r="5.7" fill="#a299be" opacity="0.47"/><circle cx="988.2" cy="770.2" r="11.9" fill="#a299be" opacity="0.05"/><circle cx="988.2" cy="770.2" r="5.7" fill="#a299be" opacity="0.47"/><circle cx="1009.2" cy="765.6" r="11.9" fill="#a299be" opacity="0.05"/><circle cx="1009.2" cy="765.6" r="5.7" fill="#a299be" opacity="0.47"/><circle cx="1030.8" cy="765.6" r="11.9" fill="#a299be" opacity="0.05"/><circle cx="1030.8" cy="765.6" r="5.7" fill="#a299be" opacity="0.47"/><circle cx="1051.8" cy="770.2" r="11.9" fill="#a299be" opacity="0.05"/><circle cx="1051.8" cy="770.2" r="5.7" fill="#a299be" opacity="0.47"/><circle cx="1071.4" cy="779.2" r="11.9" fill="#a299be" opacity="0.05"/><circle cx="1071.4" cy="779.2" r="5.7" fill="#a299be" opacity="0.47"/><circle cx="1088.5" cy="792.2" r="11.9" fill="#a299be" opacity="0.05"/><circle cx="1088.5" cy="792.2" r="5.7" fill="#a299be" opacity="0.47"/><circle cx="1102.5" cy="808.6" r="11.9" fill="#a299be" opacity="0.05"/><circle cx="1102.5" cy="808.6" r="5.7" fill="#a299be" opacity="0.47"/><circle cx="1112.7" cy="827.5" r="11.9" fill="#a299be" opacity="0.05"/><circle cx="1112.7" cy="827.5" r="5.7" fill="#a299be" opacity="0.47"/><path d="M1020 865.0 a24 24 0 0 0 -19 9 h38 a24 24 0 0 0 -19 -9z" fill="#cdbb98" opacity="0.47"/><g transform="rotate(20 1020 865.0)"><rect x="1018.0" y="835" width="4.0" height="30" rx="2.0" fill="#f5f6f7" opacity="0.47"/></g><circle cx="1029.0" cy="833.0" r="27.4" fill="#cdbb98" opacity="0.09"/><path d="M1029.0 818.6 l4.6 13.0 13.0 4.6 -13.0 4.6 -4.6 13.0 -4.6 -13.0 -13.0 -4.6 13.0 -4.6z" fill="#cdbb98" opacity="0.47"/>
  <text x="1020" y="959.0" text-anchor="middle" font-family="Helvetica,Arial" font-size="24" font-weight="700" fill="#1b2230">~30 min</text>
  <text x="1020" y="985.0" text-anchor="middle" font-family="Helvetica,Arial" font-size="18" fill="#6b7480">aging</text>

  <rect x="1265.0" y="675.0" width="250" height="250" rx="55.0" fill="url(#bg)"/>
  <circle cx="1355.2" cy="841.5" r="11.9" fill="#d9d4c8" opacity="0.03"/><circle cx="1355.2" cy="841.5" r="5.7" fill="#d9d4c8" opacity="0.31"/><circle cx="1366.8" cy="830.0" r="11.9" fill="#d9d4c8" opacity="0.03"/><circle cx="1366.8" cy="830.0" r="5.7" fill="#d9d4c8" opacity="0.31"/><circle cx="1381.8" cy="823.8" r="11.9" fill="#d9d4c8" opacity="0.03"/><circle cx="1381.8" cy="823.8" r="5.7" fill="#d9d4c8" opacity="0.31"/><circle cx="1398.2" cy="823.8" r="11.9" fill="#d9d4c8" opacity="0.03"/><circle cx="1398.2" cy="823.8" r="5.7" fill="#d9d4c8" opacity="0.31"/><circle cx="1413.2" cy="830.0" r="11.9" fill="#d9d4c8" opacity="0.03"/><circle cx="1413.2" cy="830.0" r="5.7" fill="#d9d4c8" opacity="0.31"/><circle cx="1424.8" cy="841.5" r="11.9" fill="#d9d4c8" opacity="0.03"/><circle cx="1424.8" cy="841.5" r="5.7" fill="#d9d4c8" opacity="0.31"/><circle cx="1335.3" cy="835.9" r="11.9" fill="#91a19e" opacity="0.03"/><circle cx="1335.3" cy="835.9" r="5.7" fill="#91a19e" opacity="0.31"/><circle cx="1346.7" cy="820.6" r="11.9" fill="#91a19e" opacity="0.03"/><circle cx="1346.7" cy="820.6" r="5.7" fill="#91a19e" opacity="0.31"/><circle cx="1362.3" cy="809.5" r="11.9" fill="#91a19e" opacity="0.03"/><circle cx="1362.3" cy="809.5" r="5.7" fill="#91a19e" opacity="0.31"/><circle cx="1380.5" cy="803.7" r="11.9" fill="#91a19e" opacity="0.03"/><circle cx="1380.5" cy="803.7" r="5.7" fill="#91a19e" opacity="0.31"/><circle cx="1399.5" cy="803.7" r="11.9" fill="#91a19e" opacity="0.03"/><circle cx="1399.5" cy="803.7" r="5.7" fill="#91a19e" opacity="0.31"/><circle cx="1417.7" cy="809.5" r="11.9" fill="#91a19e" opacity="0.03"/><circle cx="1417.7" cy="809.5" r="5.7" fill="#91a19e" opacity="0.31"/><circle cx="1433.3" cy="820.6" r="11.9" fill="#91a19e" opacity="0.03"/><circle cx="1433.3" cy="820.6" r="5.7" fill="#91a19e" opacity="0.31"/><circle cx="1444.7" cy="835.9" r="11.9" fill="#91a19e" opacity="0.03"/><circle cx="1444.7" cy="835.9" r="5.7" fill="#91a19e" opacity="0.31"/><circle cx="1315.1" cy="831.6" r="11.9" fill="#86939d" opacity="0.03"/><circle cx="1315.1" cy="831.6" r="5.7" fill="#86939d" opacity="0.31"/><circle cx="1326.0" cy="813.8" r="11.9" fill="#86939d" opacity="0.03"/><circle cx="1326.0" cy="813.8" r="5.7" fill="#86939d" opacity="0.31"/><circle cx="1341.0" cy="799.2" r="11.9" fill="#86939d" opacity="0.03"/><circle cx="1341.0" cy="799.2" r="5.7" fill="#86939d" opacity="0.31"/><circle cx="1359.3" cy="789.0" r="11.9" fill="#86939d" opacity="0.03"/><circle cx="1359.3" cy="789.0" r="5.7" fill="#86939d" opacity="0.31"/><circle cx="1379.5" cy="783.7" r="11.9" fill="#86939d" opacity="0.03"/><circle cx="1379.5" cy="783.7" r="5.7" fill="#86939d" opacity="0.31"/><circle cx="1400.5" cy="783.7" r="11.9" fill="#86939d" opacity="0.03"/><circle cx="1400.5" cy="783.7" r="5.7" fill="#86939d" opacity="0.31"/><circle cx="1420.7" cy="789.0" r="11.9" fill="#86939d" opacity="0.03"/><circle cx="1420.7" cy="789.0" r="5.7" fill="#86939d" opacity="0.31"/><circle cx="1439.0" cy="799.2" r="11.9" fill="#86939d" opacity="0.03"/><circle cx="1439.0" cy="799.2" r="5.7" fill="#86939d" opacity="0.31"/><circle cx="1454.0" cy="813.8" r="11.9" fill="#86939d" opacity="0.03"/><circle cx="1454.0" cy="813.8" r="5.7" fill="#86939d" opacity="0.31"/><circle cx="1464.9" cy="831.6" r="11.9" fill="#86939d" opacity="0.03"/><circle cx="1464.9" cy="831.6" r="5.7" fill="#86939d" opacity="0.31"/><circle cx="1297.3" cy="827.5" r="11.9" fill="#a19dab" opacity="0.03"/><circle cx="1297.3" cy="827.5" r="5.7" fill="#a19dab" opacity="0.31"/><circle cx="1307.5" cy="808.6" r="11.9" fill="#a19dab" opacity="0.03"/><circle cx="1307.5" cy="808.6" r="5.7" fill="#a19dab" opacity="0.31"/><circle cx="1321.5" cy="792.2" r="11.9" fill="#a19dab" opacity="0.03"/><circle cx="1321.5" cy="792.2" r="5.7" fill="#a19dab" opacity="0.31"/><circle cx="1338.6" cy="779.2" r="11.9" fill="#a19dab" opacity="0.03"/><circle cx="1338.6" cy="779.2" r="5.7" fill="#a19dab" opacity="0.31"/><circle cx="1358.2" cy="770.2" r="11.9" fill="#a19dab" opacity="0.03"/><circle cx="1358.2" cy="770.2" r="5.7" fill="#a19dab" opacity="0.31"/><circle cx="1379.2" cy="765.6" r="11.9" fill="#a19dab" opacity="0.03"/><circle cx="1379.2" cy="765.6" r="5.7" fill="#a19dab" opacity="0.31"/><circle cx="1400.8" cy="765.6" r="11.9" fill="#a19dab" opacity="0.03"/><circle cx="1400.8" cy="765.6" r="5.7" fill="#a19dab" opacity="0.31"/><circle cx="1421.8" cy="770.2" r="11.9" fill="#a19dab" opacity="0.03"/><circle cx="1421.8" cy="770.2" r="5.7" fill="#a19dab" opacity="0.31"/><circle cx="1441.4" cy="779.2" r="11.9" fill="#a19dab" opacity="0.03"/><circle cx="1441.4" cy="779.2" r="5.7" fill="#a19dab" opacity="0.31"/><circle cx="1458.5" cy="792.2" r="11.9" fill="#a19dab" opacity="0.03"/><circle cx="1458.5" cy="792.2" r="5.7" fill="#a19dab" opacity="0.31"/><circle cx="1472.5" cy="808.6" r="11.9" fill="#a19dab" opacity="0.03"/><circle cx="1472.5" cy="808.6" r="5.7" fill="#a19dab" opacity="0.31"/><circle cx="1482.7" cy="827.5" r="11.9" fill="#a19dab" opacity="0.03"/><circle cx="1482.7" cy="827.5" r="5.7" fill="#a19dab" opacity="0.31"/><path d="M1390 865.0 a24 24 0 0 0 -19 9 h38 a24 24 0 0 0 -19 -9z" fill="#c3bcaf" opacity="0.31"/><g transform="rotate(20 1390 865.0)"><rect x="1388.0" y="835" width="4.0" height="30" rx="2.0" fill="#f6f6f6" opacity="0.31"/></g><circle cx="1399.0" cy="833.0" r="27.4" fill="#c3bcaf" opacity="0.06"/><path d="M1399.0 818.6 l4.6 13.0 13.0 4.6 -13.0 4.6 -4.6 13.0 -4.6 -13.0 -13.0 -4.6 13.0 -4.6z" fill="#c3bcaf" opacity="0.31"/>
  <text x="1390" y="959.0" text-anchor="middle" font-family="Helvetica,Arial" font-size="24" font-weight="700" fill="#1b2230">stale</text>
  <text x="1390" y="985.0" text-anchor="middle" font-family="Helvetica,Arial" font-size="18" fill="#6b7480">silent / lost</text>
</svg>